<svg width="17" height="16" viewBox="0 0 17 16" fill="none" xmlns="http://www.w3.org/2000/svg">
<path d="M9.83379 14.6667H3.16712C2.80984 14.6791 2.46344 14.5426 2.21065 14.2898C1.95786 14.037 1.82137 13.6906 1.83379 13.3334V6.66669C1.82137 6.30941 1.95786 5.96301 2.21065 5.71022C2.46344 5.45743 2.80984 5.32094 3.16712 5.33336H5.83379V2.66669C5.82137 2.30941 5.95786 1.96301 6.21065 1.71022C6.46344 1.45743 6.80984 1.32094 7.16713 1.33336H13.8338C14.1911 1.32094 14.5375 1.45743 14.7903 1.71022C15.0431 1.96301 15.1795 2.30941 15.1671 2.66669V9.33335C15.1793 9.69055 15.0428 10.0369 14.7901 10.2896C14.5373 10.5424 14.191 10.6789 13.8338 10.6667H11.1671V13.3334C11.1793 13.6906 11.0428 14.0369 10.7901 14.2896C10.5373 14.5424 10.191 14.6789 9.83379 14.6667ZM3.16712 6.66669V13.3334H9.83379V10.6667H7.16713C6.80989 10.6789 6.46361 10.5424 6.21087 10.2896C5.95812 10.0369 5.82157 9.69055 5.83379 9.33335V6.66669H3.16712ZM7.16713 2.66669V9.33335H13.8338V2.66669H7.16713Z" fill="#F79420"/>
</svg>
