<svg width="18" height="18" viewBox="0 0 18 18" fill="none" xmlns="http://www.w3.org/2000/svg">
<path d="M8.9925 16.5C4.85135 16.4959 1.49724 13.1362 1.5 8.99498C1.50276 4.85384 4.86134 1.49862 9.00248 1.5C13.1437 1.50138 16.5 4.85884 16.5 9C16.4975 13.1441 13.1366 16.5016 8.9925 16.5ZM3 9.129C3.03549 12.4299 5.73083 15.0821 9.03188 15.0645C12.333 15.0467 14.9996 12.3656 14.9996 9.0645C14.9996 5.76338 12.333 3.08233 9.03188 3.06449C5.73083 3.04684 3.03549 5.69907 3 9V9.129ZM9.75 12.75H8.25V11.25H9.75V12.75ZM9.75 9.75H8.25V5.25H9.75V9.75Z" fill="#FF7360"/>
</svg>
