<svg width="20" height="19" viewBox="0 0 20 19" fill="none" xmlns="http://www.w3.org/2000/svg">
<path d="M2.08496 9.50148C2.08589 13.396 4.91787 16.7121 8.76429 17.3224V11.7894H6.75579V9.50148H8.76667V7.75985C8.67673 6.93457 8.95865 6.11207 9.53585 5.51543C10.1131 4.91878 10.9258 4.60982 11.7536 4.67235C12.3478 4.68195 12.9404 4.73487 13.527 4.83069V6.77739H12.5263C12.1818 6.73227 11.8354 6.84605 11.5848 7.08667C11.3341 7.3273 11.2063 7.66872 11.2375 8.01473V9.50148H13.4312L13.0805 11.7902H11.2375V17.3224C15.3972 16.665 18.3142 12.8659 17.8752 8.67744C17.4361 4.48897 13.7947 1.37738 9.58905 1.59687C5.38333 1.81636 2.08563 5.29009 2.08496 9.50148Z" fill="#F79420"/>
</svg>
