<svg width="20" height="19" viewBox="0 0 20 19" fill="none" xmlns="http://www.w3.org/2000/svg">
<path d="M10.0207 1.58325C6.147 1.58275 2.84486 4.39208 2.22466 8.21576C1.60445 12.0395 3.84931 15.7485 7.52455 16.9725C7.92039 17.0437 8.06209 16.8007 8.06209 16.5917C8.06209 16.404 8.05576 15.9069 8.05339 15.2458C5.85651 15.7208 5.39259 14.1866 5.39259 14.1866C5.24796 13.7092 4.93705 13.2994 4.51622 13.0315C3.80372 12.5415 4.57084 12.5526 4.57084 12.5526C5.07804 12.6221 5.52445 12.9227 5.77972 13.3664C5.99579 13.7593 6.35981 14.0496 6.79092 14.1728C7.22202 14.2961 7.68448 14.242 8.07555 14.0227C8.1123 13.6221 8.29051 13.2477 8.57825 12.9666C6.82551 12.7679 4.98251 12.0903 4.98251 9.06371C4.97278 8.28091 5.26347 7.52416 5.79476 6.94917C5.55437 6.26779 5.58268 5.52041 5.87393 4.85917C5.87393 4.85917 6.53655 4.64621 8.04468 5.66746C9.33817 5.3128 10.7032 5.3128 11.9967 5.66746C13.5056 4.64542 14.1674 4.85917 14.1674 4.85917C14.46 5.5201 14.4884 6.26799 14.2466 6.94917C14.7798 7.5241 15.0703 8.28281 15.0572 9.06688C15.0572 12.1013 13.2127 12.7679 11.4536 12.9635C11.833 13.3515 12.0277 13.8836 11.988 14.4249C11.988 15.481 11.9785 16.3328 11.9785 16.5917C11.9785 16.803 12.1194 17.0485 12.5223 16.9709C16.1961 15.7449 18.4385 12.0356 17.817 8.21291C17.1955 4.39022 13.8936 1.58237 10.0207 1.58325Z" fill="#F79420"/>
</svg>
