<svg width="48" height="48" viewBox="0 0 48 48" fill="none" xmlns="http://www.w3.org/2000/svg">
<g filter="url(#filter0_b)">
<rect width="48" height="48" rx="5" fill="#F79420"/>
</g>
<path d="M24 33C23.355 32.428 22.626 31.833 21.855 31.2H21.845C19.13 28.98 16.053 26.468 14.694 23.458C14.2475 22.4997 14.0109 21.4571 14 20.4C13.997 18.9495 14.5788 17.559 15.6138 16.5428C16.6489 15.5266 18.0498 14.9704 19.5 15C20.6807 15.0019 21.8359 15.3431 22.828 15.983C23.264 16.266 23.6584 16.6083 24 17C24.3435 16.6098 24.7381 16.2677 25.173 15.983C26.1648 15.343 27.3197 15.0017 28.5 15C29.9502 14.9704 31.3512 15.5266 32.3862 16.5428C33.4213 17.559 34.003 18.9495 34 20.4C33.9898 21.4588 33.7532 22.5032 33.306 23.463C31.947 26.473 28.871 28.984 26.156 31.2L26.146 31.208C25.374 31.837 24.646 32.432 24.001 33.008L24 33ZM19.5 17C18.5685 16.9884 17.6701 17.3449 17 17.992C16.3544 18.6262 15.9936 19.4951 15.9999 20.4C16.0114 21.1705 16.1859 21.9299 16.512 22.628C17.1535 23.9267 18.0191 25.102 19.069 26.1C20.06 27.1 21.2 28.068 22.186 28.882C22.459 29.107 22.737 29.334 23.015 29.561L23.19 29.704C23.457 29.922 23.733 30.148 24 30.37L24.013 30.358L24.019 30.353H24.025L24.034 30.346H24.039H24.044L24.062 30.331L24.103 30.298L24.11 30.292L24.121 30.284H24.127L24.136 30.276L24.8 29.731L24.974 29.588C25.255 29.359 25.533 29.132 25.806 28.907C26.792 28.093 27.933 27.126 28.924 26.121C29.9741 25.1236 30.8397 23.9485 31.481 22.65C31.8131 21.9458 31.9901 21.1785 32.0001 20.4C32.0042 19.4979 31.6435 18.6323 31 18C30.3312 17.3499 29.4326 16.9905 28.5 17C27.3619 16.9903 26.274 17.4674 25.51 18.311L24 20.051L22.49 18.311C21.7261 17.4674 20.6381 16.9903 19.5 17Z" fill="white"/>
<defs>
<filter id="filter0_b" x="-10" y="-10" width="68" height="68" filterUnits="userSpaceOnUse" color-interpolation-filters="sRGB">
<feFlood flood-opacity="0" result="BackgroundImageFix"/>
<feGaussianBlur in="BackgroundImage" stdDeviation="5"/>
<feComposite in2="SourceAlpha" operator="in" result="effect1_backgroundBlur"/>
<feBlend mode="normal" in="SourceGraphic" in2="effect1_backgroundBlur" result="shape"/>
</filter>
</defs>
</svg>
