<svg width="20" height="19" viewBox="0 0 20 19" fill="none" xmlns="http://www.w3.org/2000/svg">
<path d="M10.0015 16.6574C8.05396 16.6574 7.82438 16.6471 7.06438 16.6139C6.47172 16.5944 5.88673 16.4739 5.33459 16.2576C4.37929 15.8858 3.62391 15.1302 3.25251 14.1747C3.04454 13.6206 2.93237 13.0351 2.9208 12.4434C2.87646 11.6849 2.87646 11.4364 2.87646 9.50391C2.87646 7.55086 2.88676 7.32286 2.9208 6.56682C2.93263 5.97587 3.04479 5.39121 3.25251 4.83782C3.62351 3.88112 4.38012 3.1248 5.33696 2.75416C5.89006 2.54532 6.47487 2.43286 7.06596 2.42166C7.82201 2.37891 8.07059 2.37891 10.0015 2.37891C11.9648 2.37891 12.1905 2.3892 12.9386 2.42166C13.5311 2.43295 14.1175 2.5454 14.6723 2.75416C15.6289 3.12522 16.3853 3.88139 16.7568 4.83782C16.9682 5.39927 17.081 5.99307 17.0901 6.59295C17.1344 7.35136 17.1344 7.59916 17.1344 9.53082C17.1344 11.4625 17.1233 11.7158 17.0901 12.4655C17.0783 13.0579 16.9658 13.6438 16.7576 14.1985C16.3852 15.1546 15.6287 15.9105 14.6723 16.2822C14.1183 16.4897 13.5332 16.6019 12.9418 16.6139C12.1857 16.6574 11.9379 16.6574 10.0015 16.6574ZM9.97459 3.63211C8.03813 3.63211 7.83705 3.64161 7.08101 3.67566C6.62975 3.68164 6.18284 3.76492 5.75971 3.92186C5.1349 4.16096 4.64048 4.65336 4.39884 5.2772C4.24068 5.70494 4.15739 6.15672 4.15263 6.61274C4.11067 7.37986 4.11067 7.58095 4.11067 9.50391C4.11067 11.4039 4.1178 11.6343 4.15263 12.3967C4.15972 12.8481 4.24296 13.295 4.39884 13.7187C4.64084 14.3422 5.13517 14.8342 5.75971 15.0733C6.18256 15.2313 6.62964 15.3146 7.08101 15.3195C7.84734 15.3638 8.04921 15.3638 9.97459 15.3638C11.9165 15.3638 12.1176 15.3543 12.8673 15.3195C13.3189 15.314 13.7661 15.2307 14.1894 15.0733C14.8104 14.8321 15.3016 14.3412 15.5432 13.7203C15.701 13.2923 15.7842 12.8402 15.7894 12.384H15.7981C15.8321 11.6272 15.8321 11.4253 15.8321 9.49124C15.8321 7.55721 15.8234 7.35374 15.7894 6.5977C15.7823 6.14681 15.699 5.70036 15.5432 5.2772C15.3022 4.65541 14.8109 4.16356 14.1894 3.92186C13.7662 3.76412 13.3189 3.68083 12.8673 3.67566C12.1018 3.63211 11.9015 3.63211 9.97459 3.63211ZM10.0015 13.1606C8.52101 13.1616 7.18584 12.2705 6.61857 10.9032C6.05129 9.53573 6.36369 7.96119 7.41005 6.91394C8.45641 5.86667 10.0306 5.55292 11.3986 6.11901C12.7665 6.6851 13.6586 8.01953 13.659 9.49995C13.6568 11.5196 12.021 13.1567 10.0015 13.1606ZM10.0015 7.12336C8.68979 7.12336 7.62646 8.18673 7.62646 9.49836C7.62646 10.8101 8.68979 11.8734 10.0015 11.8734C11.3131 11.8734 12.3765 10.8101 12.3765 9.49836C12.3734 8.18792 11.3119 7.12641 10.0015 7.12336ZM13.8015 6.55891C13.3308 6.55716 12.9504 6.17462 12.9513 5.70391C12.9521 5.2332 13.3339 4.85208 13.8047 4.85208C14.2753 4.85208 14.6571 5.2332 14.6581 5.70391C14.6582 5.93101 14.568 6.14885 14.4073 6.30928C14.2466 6.46972 14.0286 6.55954 13.8015 6.55891Z" fill="#F79420"/>
</svg>
