<svg width="40" height="40" viewBox="0 0 40 40" fill="none" xmlns="http://www.w3.org/2000/svg">
<rect width="40" height="40" rx="5" fill="#F5F5F5"/>
<path d="M20.0005 12.595C18.9109 11.5931 17.4847 11.037 16.0045 11.037C15.221 11.0378 14.4454 11.1935 13.7224 11.4953C12.9994 11.797 12.3431 12.2387 11.7915 12.795C9.43847 15.158 9.43947 18.854 11.7935 21.207L19.1255 28.539C19.2955 28.838 19.6235 29.031 20.0005 29.031C20.1553 29.0295 20.3076 28.9917 20.4451 28.9207C20.5827 28.8496 20.7016 28.7473 20.7925 28.622L28.2075 21.207C30.5615 18.853 30.5615 15.158 28.2055 12.791C27.6541 12.2357 26.9984 11.7949 26.276 11.4939C25.5537 11.1929 24.779 11.0376 23.9965 11.037C22.5163 11.0372 21.0902 11.5933 20.0005 12.595V12.595ZM26.7915 14.205C28.3545 15.776 28.3555 18.23 26.7935 19.793L20.0005 26.586L13.2075 19.793C11.6455 18.23 11.6465 15.776 13.2055 14.209C13.9655 13.453 14.9595 13.037 16.0045 13.037C17.0495 13.037 18.0395 13.453 18.7935 14.207L19.2935 14.707C19.3863 14.7999 19.4965 14.8737 19.6178 14.924C19.7391 14.9743 19.8691 15.0002 20.0005 15.0002C20.1318 15.0002 20.2618 14.9743 20.3832 14.924C20.5045 14.8737 20.6147 14.7999 20.7075 14.707L21.2075 14.207C22.7195 12.698 25.2815 12.702 26.7915 14.205V14.205Z" fill="#F79420"/>
</svg>
