<svg width="22" height="22" viewBox="0 0 22 22" fill="none" xmlns="http://www.w3.org/2000/svg">
<path d="M20.1664 7.33242C20.1663 7.16882 20.1223 7.00824 20.0391 6.86736C19.956 6.72648 19.8366 6.61043 19.6934 6.53125L11.4233 1.94792C11.2874 1.87305 11.1348 1.83379 10.9796 1.83379C10.8245 1.83379 10.6718 1.87305 10.5359 1.94792L2.30611 6.49458C2.16314 6.57375 2.04393 6.6897 1.96084 6.83042C1.87774 6.97114 1.83378 7.13152 1.8335 7.29494C1.83322 7.45836 1.87663 7.61889 1.95924 7.7599C2.04186 7.9009 2.16066 8.01726 2.30336 8.09692L10.5735 12.7169C10.7097 12.7934 10.8632 12.8337 11.0194 12.8338C11.1755 12.834 11.3291 12.7941 11.4654 12.7178L19.6953 8.1345C19.8382 8.055 19.9573 7.9387 20.0402 7.79766C20.123 7.65663 20.1666 7.49599 20.1664 7.33242V7.33242ZM11.0209 10.8662L4.63811 7.30125L10.9787 3.79775L17.3624 7.33517L11.0209 10.8662V10.8662Z" fill="#F79420"/>
<path d="M18.8056 10.1988L11.0002 14.5347L3.19477 10.1988L2.30469 11.8012L10.5547 16.3845C10.6908 16.4601 10.844 16.4998 10.9997 16.4998C11.1555 16.4998 11.3086 16.4601 11.4448 16.3845L19.6948 11.8012L18.8056 10.1988Z" fill="#F79420"/>
<path d="M18.8056 13.8655L11.0002 18.2013L3.19477 13.8655L2.30469 15.4678L10.5547 20.0512C10.6908 20.1268 10.844 20.1664 10.9997 20.1664C11.1555 20.1664 11.3086 20.1268 11.4448 20.0512L19.6948 15.4678L18.8056 13.8655V13.8655Z" fill="#F79420"/>
</svg>
