<svg width="40" height="40" viewBox="0 0 40 40" fill="none" xmlns="http://www.w3.org/2000/svg">
<rect width="40" height="40" rx="5" fill="#F5F5F5"/>
<path d="M26 17C27.6569 17 29 15.6569 29 14C29 12.3431 27.6569 11 26 11C24.3431 11 23 12.3431 23 14C23 15.6569 24.3431 17 26 17Z" fill="#F79420"/>
<path d="M26 27H13V14H21C21 13.288 21.153 12.613 21.422 12H13C11.897 12 11 12.897 11 14V27C11 28.103 11.897 29 13 29H26C27.103 29 28 28.103 28 27V18.578C27.3698 18.8559 26.6887 18.9997 26 19V27Z" fill="#F79420"/>
</svg>
