<svg width="24" height="24" viewBox="0 0 24 24" fill="none" xmlns="http://www.w3.org/2000/svg">
<path d="M12.0003 22C7.95386 22.0024 4.3048 19.5659 2.75597 15.8276C1.20714 12.0893 2.06385 7.78606 4.9263 4.92598C7.4536 2.39868 11.1372 1.41166 14.5896 2.33672C18.0419 3.26177 20.7385 5.95836 21.6636 9.41072C22.5886 12.8631 21.6016 16.5467 19.0743 19.074C17.2018 20.955 14.6545 22.0086 12.0003 22ZM4.0003 12.172C4.04762 16.5732 7.64141 20.1095 12.0429 20.086C16.4443 20.0622 19.9999 16.4875 19.9999 12.086C19.9999 7.68449 16.4443 4.10975 12.0429 4.08598C7.64141 4.06244 4.04762 7.59874 4.0003 12V12.172ZM9.4093 16L8.0003 14.59L10.5903 12L8.0003 9.40998L9.4103 7.99998L12.0003 10.59L14.5903 7.99998L16.0003 9.40998L13.4103 12L16.0003 14.59L14.5913 16L12.0003 13.41L9.4103 16H9.4093Z" fill="#F79420"/>
</svg>
