<svg width="16" height="16" viewBox="0 0 16 16" fill="none" xmlns="http://www.w3.org/2000/svg">
<path d="M2.66699 13.3334V8.66669H7.33366L5.18899 10.8134C5.92897 11.57 6.94199 11.9976 8.00033 12C9.69326 11.9975 11.2013 10.9295 11.7657 9.33335H11.7777C11.854 9.11642 11.9118 8.89342 11.9503 8.66669H13.2917C12.9557 11.3333 10.688 13.3333 8.00033 13.3334H7.99366C6.5795 13.3376 5.22243 12.7758 4.22499 11.7734L2.66699 13.3334ZM4.04966 7.33335H2.70833C3.04416 4.66775 5.31033 2.66811 7.99699 2.66665H8.00033C9.41473 2.66213 10.7721 3.22391 11.7697 4.22668L13.3337 2.66665V7.33335H8.66699L10.815 5.18668C10.0743 4.42911 9.05986 4.00144 8.00033 4.00001C6.30736 4.00251 4.79931 5.07053 4.23499 6.66668H4.22299C4.14603 6.88342 4.08825 7.10649 4.05033 7.33335H4.04966Z" fill="#F79420"/>
</svg>
