<svg width="22" height="23" viewBox="0 0 22 23" fill="none" xmlns="http://www.w3.org/2000/svg">
<path d="M9.16634 17C10.7934 16.9997 12.3736 16.455 13.6553 15.4527L17.6849 19.4823L18.9811 18.1862L14.9514 14.1565C15.9543 12.8747 16.4993 11.2942 16.4997 9.66668C16.4997 5.62326 13.2098 2.33334 9.16634 2.33334C5.12292 2.33334 1.83301 5.62326 1.83301 9.66668C1.83301 13.7101 5.12292 17 9.16634 17ZM9.16634 4.16668C12.1996 4.16668 14.6663 6.63343 14.6663 9.66668C14.6663 12.6999 12.1996 15.1667 9.16634 15.1667C6.13309 15.1667 3.66634 12.6999 3.66634 9.66668C3.66634 6.63343 6.13309 4.16668 9.16634 4.16668Z" fill="#F79420"/>
</svg>
