<svg width="22" height="22" viewBox="0 0 22 22" fill="none" xmlns="http://www.w3.org/2000/svg">
<path d="M10.9998 21.0833L2.2915 16.0417V5.95834L10.9998 0.916672L19.7082 5.95834V16.0417L10.9998 21.0833ZM10.9998 3.03601L4.12484 7.01525V14.9848L10.9998 18.9649L17.8748 14.9848V7.01525L10.9998 3.03509V3.03601ZM10.9998 14.6667C10.0277 14.6639 9.09586 14.2779 8.40659 13.5923C7.35814 12.5436 7.04465 10.9665 7.61228 9.5965C8.1799 8.2265 9.51685 7.33334 10.9998 7.33334C11.9718 7.33594 12.9033 7.72202 13.5922 8.40767C15.0235 9.8395 15.0235 12.1605 13.5922 13.5923C12.9032 14.2777 11.9717 14.6637 10.9998 14.6667ZM10.9998 9.16667C10.1252 9.16649 9.3722 9.78414 9.20143 10.642C9.03061 11.4998 9.48954 12.3588 10.2976 12.6936C11.1055 13.0285 12.0376 12.746 12.5236 12.0188C13.0097 11.2917 12.9144 10.3224 12.296 9.70384C11.953 9.35899 11.4863 9.16556 10.9998 9.16667Z" fill="#FBD8AE"/>
</svg>
