<svg width="40" height="40" viewBox="0 0 40 40" fill="none" xmlns="http://www.w3.org/2000/svg">
<rect width="40" height="40" rx="5" fill="#F5F5F5"/>
<path d="M25.5003 30C24.4182 30.0125 23.3927 29.5181 22.7285 28.6637C22.0644 27.8094 21.8382 26.6935 22.1173 25.648L15.8573 22.07C14.7756 23.061 13.19 23.2708 11.8878 22.5951C10.5856 21.9194 9.84421 20.5022 10.0317 19.0472C10.2192 17.5921 11.2957 16.4092 12.7266 16.0857C14.1576 15.7622 15.6382 16.3671 16.4333 17.6L22.1163 14.351C22.0428 14.0732 22.0038 13.7873 22.0003 13.5C21.986 11.8267 23.1481 10.3731 24.7835 10.0188C26.4189 9.66446 28.0784 10.5067 28.7579 12.0359C29.4374 13.5651 28.9503 15.3612 27.5913 16.3375C26.2322 17.3138 24.3746 17.2021 23.1423 16.07L16.9913 19.585C16.9852 19.8443 16.949 20.102 16.8833 20.353L23.1423 23.93C24.2946 22.8725 26.0091 22.7093 27.3402 23.5303C28.6713 24.3513 29.2949 25.9567 28.8671 27.461C28.4393 28.9653 27.0642 30.0023 25.5003 30ZM25.5003 25C24.6719 25 24.0003 25.6716 24.0003 26.5C24.0003 27.3284 24.6719 28 25.5003 28C26.3287 28 27.0003 27.3284 27.0003 26.5C27.0003 25.6716 26.3287 25 25.5003 25ZM13.5003 18C12.6719 18 12.0003 18.6716 12.0003 19.5C12.0003 20.3284 12.6719 21 13.5003 21C14.3288 21 15.0003 20.3284 15.0003 19.5C15.0003 18.6716 14.3288 18 13.5003 18ZM25.5003 12C24.6719 12 24.0003 12.6715 24.0003 13.5C24.0003 14.3284 24.6719 15 25.5003 15C26.3287 15 27.0003 14.3284 27.0003 13.5C27.0003 12.6715 26.3287 12 25.5003 12Z" fill="#F79420"/>
</svg>
