<svg width="20" height="19" viewBox="0 0 20 19" fill="none" xmlns="http://www.w3.org/2000/svg">
<path d="M16.3296 5.29462C17.0393 4.87036 17.5703 4.20231 17.8235 3.4152C17.1567 3.81088 16.427 4.08961 15.6662 4.23933C14.6114 3.1235 12.9401 2.85195 11.5863 3.57643C10.2324 4.3009 9.53118 5.84205 9.87437 7.3387C7.14281 7.20156 4.59789 5.91126 2.87288 3.78887C1.97263 5.34166 2.43268 7.32665 3.92421 8.32513C3.38486 8.30779 2.85746 8.16173 2.38601 7.8992C2.38601 7.91345 2.38601 7.92771 2.38601 7.94196C2.38632 9.55941 3.5263 10.9527 5.11171 11.2733C4.61143 11.4094 4.08667 11.4294 3.57747 11.3319C4.02333 12.7152 5.29819 13.6628 6.75126 13.691C5.54779 14.6356 4.06155 15.1479 2.53167 15.1453C2.2605 15.1457 1.98955 15.1301 1.72021 15.0986C3.27377 16.0969 5.08192 16.6268 6.92859 16.625C9.49777 16.6426 11.9667 15.6298 13.7834 13.813C15.6 11.9962 16.6127 9.52703 16.5948 6.95791C16.5948 6.81066 16.5914 6.6642 16.5845 6.51854C17.2499 6.03768 17.8241 5.44199 18.2803 4.75945C17.6604 5.03421 17.0029 5.2146 16.3296 5.29462Z" fill="#F79420"/>
</svg>
