<svg width="40" height="40" viewBox="0 0 40 40" fill="none" xmlns="http://www.w3.org/2000/svg">
<rect width="40" height="40" rx="5" fill="#F5F5F5"/>
<path d="M21 27V23H24L20 18L16 23H19V27H21Z" fill="#F79420"/>
<path d="M15 27H17V25H15C13.346 25 12 23.654 12 22C12 20.596 13.199 19.244 14.673 18.985L15.254 18.883L15.446 18.325C16.149 16.274 17.895 15 20 15C22.757 15 25 17.243 25 20V21H26C27.103 21 28 21.897 28 23C28 24.103 27.103 25 26 25H23V27H26C28.206 27 30 25.206 30 23C29.9985 22.1036 29.6966 21.2336 29.1427 20.5288C28.5888 19.8241 27.8147 19.3253 26.944 19.112C26.507 15.67 23.56 13 20 13C17.244 13 14.85 14.611 13.757 17.15C11.609 17.792 10 19.82 10 22C10 24.757 12.243 27 15 27Z" fill="#F79420"/>
</svg>
