<svg width="20" height="19" viewBox="0 0 20 19" fill="none" xmlns="http://www.w3.org/2000/svg">
<path d="M10.0048 15.0513H9.98896C9.93988 15.0513 5.02917 15.0418 3.79021 14.7054C3.10893 14.5219 2.57686 13.9895 2.39371 13.3081C2.17092 12.0512 2.06334 10.7766 2.07229 9.50016C2.06654 8.22162 2.17704 6.94522 2.40242 5.6867C2.59061 5.00469 3.12033 4.46987 3.8005 4.27516C5.00542 3.9585 9.78075 3.9585 9.98342 3.9585H10C10.0499 3.9585 14.9733 3.968 16.1996 4.30445C16.8795 4.48892 17.4104 5.0202 17.5945 5.70016C17.8244 6.96172 17.9323 8.24244 17.9167 9.5247C17.9223 10.8017 17.8115 12.0765 17.5858 13.3334C17.4003 14.0139 16.8679 14.5451 16.1869 14.7291C14.9836 15.0482 10.2075 15.0513 10.0048 15.0513ZM8.42146 7.12912L8.4175 11.8791L12.5437 9.50412L8.42146 7.12912Z" fill="#F79420"/>
</svg>
