<svg width="265" height="197" viewBox="0 0 265 197" fill="none" xmlns="http://www.w3.org/2000/svg">
<g clip-path="url(#clip0)">
<path d="M136.547 195.072H63.4082" stroke="#222221" stroke-width="0.5" stroke-miterlimit="10"/>
<path d="M185.026 124.542C181.529 125.628 177.777 126.05 174.375 127.438C162.787 132.131 159.647 147.846 163.663 158.633C168.237 170.916 185.808 177.151 197.692 178.371C208.431 179.471 228.555 182.461 238.061 175.817C264.855 157.118 265.461 95.9076 225.334 94.0438C220.443 93.8091 215.364 94.4795 211.186 97.0004C201.081 103.081 198.75 118.005 188.193 123.295C187.173 123.796 186.114 124.213 185.026 124.542Z" fill="#926F47"/>
<path d="M20.3569 175.919C19.6625 175.476 18.9589 174.987 18.3251 174.498C14.7136 171.72 11.8896 168.044 9.55965 164.148C-2.38859 143.961 -4.04755 113.415 9.80663 93.782C19.5553 79.9558 36.1217 72.5557 47.4082 59.955C56.9519 49.2976 66.0482 40.3831 77.6516 31.9951C83.827 27.5731 90.8554 24.4852 98.2894 22.928C105.723 21.3707 113.4 21.3782 120.831 22.95C128.753 24.6835 138.041 29.474 145.343 33.1414C153.537 37.1923 161.097 42.4151 167.785 48.6452C180.954 61.0315 189.916 78.0032 188.62 96.4475C188.126 103.479 185.242 110.558 180.116 115.493C174.132 121.248 167.357 120.153 159.612 119.221C147.594 117.781 135.175 117.939 123.678 121.737C106.436 127.432 97.8201 142.199 86.8225 155.336C75.1398 169.283 61.0107 179.964 42.0865 180.868C34.5606 181.246 26.6991 179.922 20.3569 175.919Z" fill="#E1E1E1" fill-opacity="0.1"/>
<path d="M63.5859 141.654H42.2617V192.835H63.5859V141.654Z" fill="white" stroke="#222221" stroke-width="0.5" stroke-miterlimit="10"/>
<path d="M76.5031 135.638H29.3485C28.7154 135.638 28.2021 136.151 28.2021 136.784V142.526C28.2021 143.159 28.7154 143.672 29.3485 143.672H76.5031C77.1362 143.672 77.6494 143.159 77.6494 142.526V136.784C77.6494 136.151 77.1362 135.638 76.5031 135.638Z" fill="white" stroke="#222221" stroke-width="0.5" stroke-miterlimit="10"/>
<path d="M29.0969 143.737C30.4815 143.737 31.604 141.912 31.604 139.66C31.604 137.408 30.4815 135.582 29.0969 135.582C27.7123 135.582 26.5898 137.408 26.5898 139.66C26.5898 141.912 27.7123 143.737 29.0969 143.737Z" fill="white" stroke="#222221" stroke-width="0.5" stroke-miterlimit="10"/>
<path d="M76.4016 143.737C77.7862 143.737 78.9087 141.912 78.9087 139.66C78.9087 137.408 77.7862 135.582 76.4016 135.582C75.017 135.582 73.8945 137.408 73.8945 139.66C73.8945 141.912 75.017 143.737 76.4016 143.737Z" fill="white" stroke="#222221" stroke-width="0.5" stroke-miterlimit="10"/>
<path d="M46.4561 143.938V192.411" stroke="#222221" stroke-width="0.5" stroke-miterlimit="10"/>
<path d="M50.6494 143.938V192.411" stroke="#222221" stroke-width="0.5" stroke-miterlimit="10"/>
<path d="M54.8438 143.938V192.411" stroke="#222221" stroke-width="0.5" stroke-miterlimit="10"/>
<path d="M59.042 143.938V192.411" stroke="#222221" stroke-width="0.5" stroke-miterlimit="10"/>
<path d="M69.0614 194.974H36.4414C36.4414 193.614 36.9815 192.311 37.9428 191.349C38.9041 190.388 40.2079 189.848 41.5674 189.848H63.9354C65.2949 189.848 66.5987 190.388 67.56 191.349C68.5213 192.311 69.0614 193.614 69.0614 194.974Z" fill="white" stroke="#222221" stroke-width="0.5" stroke-miterlimit="10"/>
<path d="M48.8887 48.9016H28.7948L18.7432 66.3066L28.7948 83.7117H48.8887L58.9403 66.3066L48.8887 48.9016Z" stroke="#222221" stroke-width="0.5" stroke-miterlimit="10"/>
<path d="M79.0577 31.5943H58.9591L48.9121 48.9994L58.9591 66.4045H79.0577L89.1046 48.9994L79.0577 31.5943Z" stroke="#222221" stroke-width="0.5" stroke-miterlimit="10"/>
<path d="M108.803 14.096H88.7089L78.6572 31.5011L88.7089 48.9062H108.803L118.85 31.5011L108.803 14.096Z" fill="#D28C3A" stroke="black" stroke-width="0.5" stroke-miterlimit="10"/>
<path d="M78.8897 66.5397H58.7958L48.7441 83.9448L58.7958 101.35H78.8897L88.9413 83.9448L78.8897 66.5397Z" fill="#A8DCA4" stroke="black" stroke-width="0.5" stroke-miterlimit="10"/>
<path d="M109.059 49.2324H88.96L78.9131 66.6375L88.96 84.0426H109.059L119.106 66.6375L109.059 49.2324Z" stroke="#222221" stroke-width="0.5" stroke-miterlimit="10"/>
<path d="M139.223 31.9252H119.124L109.077 49.3303L119.124 66.7354H139.223L149.274 49.3303L139.223 31.9252Z" fill="#A8DCA4" stroke="black" stroke-width="0.5" stroke-miterlimit="10"/>
<path d="M109.059 84.0146H88.96L78.9131 101.42L88.96 118.825H109.059L119.106 101.42L109.059 84.0146Z" fill="#D89CC7" stroke="black" stroke-width="0.5" stroke-miterlimit="10"/>
<path d="M49.0332 14.096H28.9393L18.8877 31.5011L28.9393 48.9062H49.0332L59.0849 31.5011L49.0332 14.096Z" stroke="#222221" stroke-width="0.5" stroke-miterlimit="10"/>
<path d="M139.223 66.7074H119.124L109.077 84.1125L119.124 101.518H139.223L149.274 84.1125L139.223 66.7074Z" stroke="#222221" stroke-width="0.5" stroke-miterlimit="10"/>
<path d="M169.392 49.4001H149.293L139.246 66.8006L149.293 84.2057H169.392L179.439 66.8006L169.392 49.4001Z" stroke="#222221" stroke-width="0.5" stroke-miterlimit="10"/>
<path d="M69.6623 55.1599C64.1822 55.1599 59.7412 49.2697 59.7412 49.2697C59.7412 49.2697 64.1822 43.3795 69.6623 43.3795C75.1425 43.3795 79.5835 49.2697 79.5835 49.2697C79.5835 49.2697 75.1425 55.1599 69.6623 55.1599Z" fill="#D47172" stroke="black" stroke-width="0.5" stroke-miterlimit="10"/>
<path d="M69.6211 55.1413C71.9451 55.1413 73.829 52.5166 73.829 49.279C73.829 46.0414 71.9451 43.4167 69.6211 43.4167C67.2971 43.4167 65.4131 46.0414 65.4131 49.279C65.4131 52.5166 67.2971 55.1413 69.6211 55.1413Z" fill="black"/>
<path d="M90.4886 84.2663C90.4877 84.6108 90.3847 84.9473 90.1926 85.2333C90.0005 85.5193 89.728 85.7419 89.4095 85.8731C89.0909 86.0043 88.7407 86.0382 88.4029 85.9704C88.0651 85.9026 87.755 85.7363 87.5118 85.4924C87.2685 85.2484 87.103 84.9379 87.0361 84.5999C86.9692 84.262 87.004 83.9118 87.136 83.5936C87.2681 83.2754 87.4915 83.0035 87.778 82.8122C88.0645 82.6209 88.4013 82.5188 88.7458 82.5188C89.2084 82.52 89.6517 82.7047 89.9784 83.0323C90.3051 83.3599 90.4886 83.8036 90.4886 84.2663Z" fill="#D47172" stroke="black" stroke-width="0.5" stroke-miterlimit="10"/>
<path d="M111.183 84.2663C111.183 84.6121 111.081 84.9502 110.889 85.2376C110.696 85.5251 110.423 85.7491 110.104 85.8812C109.784 86.0134 109.432 86.0477 109.093 85.9799C108.754 85.9121 108.443 85.7452 108.199 85.5003C107.954 85.2555 107.788 84.9436 107.721 84.6044C107.655 84.2651 107.69 83.9136 107.823 83.5943C107.956 83.2751 108.181 83.0025 108.469 82.811C108.757 82.6196 109.095 82.5179 109.441 82.5188C109.903 82.52 110.347 82.7047 110.673 83.0323C111 83.3599 111.183 83.8036 111.183 84.2663Z" fill="#D47172" stroke="black" stroke-width="0.5" stroke-miterlimit="10"/>
<path d="M120.848 66.6375C120.848 66.9822 120.746 67.3192 120.554 67.6058C120.363 67.8924 120.091 68.1158 119.772 68.2477C119.454 68.3796 119.103 68.4141 118.765 68.3469C118.427 68.2796 118.117 68.1136 117.873 67.8699C117.629 67.6262 117.463 67.3156 117.396 66.9775C117.329 66.6394 117.363 66.289 117.495 65.9706C117.627 65.6521 117.85 65.3799 118.137 65.1884C118.423 64.9969 118.76 64.8947 119.105 64.8947C119.334 64.894 119.561 64.9387 119.773 65.0261C119.985 65.1134 120.177 65.2418 120.339 65.4038C120.501 65.5657 120.629 65.7581 120.717 65.9698C120.804 66.1816 120.849 66.4085 120.848 66.6375Z" fill="#222221"/>
<path d="M140.965 66.754C140.965 67.0987 140.863 67.4357 140.671 67.7223C140.48 68.0089 140.208 68.2323 139.889 68.3642C139.571 68.4961 139.22 68.5306 138.882 68.4634C138.544 68.3961 138.234 68.2301 137.99 67.9864C137.746 67.7426 137.58 67.4321 137.513 67.094C137.446 66.756 137.48 66.4055 137.612 66.0871C137.744 65.7686 137.967 65.4964 138.254 65.3049C138.541 65.1134 138.878 65.0112 139.222 65.0112C139.685 65.0112 140.128 65.1948 140.455 65.5216C140.782 65.8485 140.965 66.2918 140.965 66.754Z" fill="#222221"/>
<path d="M80.8284 31.5943C80.8284 31.939 80.7262 32.2759 80.5347 32.5626C80.3432 32.8492 80.071 33.0725 79.7526 33.2045C79.4341 33.3364 79.0837 33.3709 78.7456 33.3036C78.4075 33.2364 78.097 33.0704 77.8532 32.8267C77.6095 32.5829 77.4435 32.2724 77.3763 31.9343C77.309 31.5962 77.3435 31.2458 77.4754 30.9273C77.6074 30.6089 77.8307 30.3367 78.1173 30.1452C78.4039 29.9537 78.7409 29.8514 79.0856 29.8514C79.3147 29.8508 79.5416 29.8955 79.7533 29.9829C79.965 30.0702 80.1574 30.1986 80.3194 30.3605C80.4813 30.5225 80.6097 30.7149 80.697 30.9266C80.7844 31.1383 80.8291 31.3652 80.8284 31.5943Z" fill="#222221"/>
<path d="M120.848 101.42C120.848 101.764 120.746 102.101 120.554 102.388C120.363 102.675 120.091 102.898 119.772 103.03C119.454 103.162 119.103 103.196 118.765 103.129C118.427 103.062 118.117 102.896 117.873 102.652C117.629 102.408 117.463 102.098 117.396 101.76C117.329 101.422 117.363 101.071 117.495 100.753C117.627 100.434 117.85 100.162 118.137 99.9706C118.423 99.7791 118.76 99.6769 119.105 99.6769C119.334 99.6763 119.561 99.7209 119.773 99.8083C119.985 99.8957 120.177 100.024 120.339 100.186C120.501 100.348 120.629 100.54 120.717 100.752C120.804 100.964 120.849 101.191 120.848 101.42Z" fill="#D47172" stroke="black" stroke-width="0.5" stroke-miterlimit="10"/>
<path d="M151.106 49.6518C151.106 49.9965 151.004 50.3334 150.812 50.6201C150.621 50.9067 150.348 51.13 150.03 51.262C149.711 51.3939 149.361 51.4284 149.023 51.3611C148.685 51.2939 148.374 51.1279 148.131 50.8842C147.887 50.6404 147.721 50.3299 147.654 49.9918C147.586 49.6537 147.621 49.3033 147.753 48.9848C147.885 48.6664 148.108 48.3942 148.395 48.2027C148.681 48.0112 149.018 47.9089 149.363 47.9089C149.592 47.9083 149.819 47.953 150.031 48.0404C150.242 48.1277 150.435 48.2561 150.597 48.418C150.759 48.58 150.887 48.7724 150.974 48.9841C151.062 49.1958 151.106 49.4227 151.106 49.6518Z" fill="#222221"/>
<path d="M90.4886 49.265C90.4886 49.6097 90.3864 49.9467 90.1949 50.2333C90.0034 50.5199 89.7312 50.7433 89.4127 50.8752C89.0943 51.0071 88.7438 51.0416 88.4058 50.9744C88.0677 50.9071 87.7571 50.7411 87.5134 50.4974C87.2697 50.2537 87.1037 49.9431 87.0364 49.605C86.9692 49.267 87.0037 48.9165 87.1356 48.5981C87.2675 48.2796 87.4909 48.0074 87.7775 47.8159C88.0641 47.6244 88.4011 47.5222 88.7458 47.5222C89.2076 47.5234 89.6502 47.7074 89.9768 48.034C90.3034 48.3606 90.4874 48.8032 90.4886 49.265Z" fill="#222221"/>
<path d="M60.9061 32.0417C60.9071 32.3875 60.8053 32.7258 60.6139 33.0138C60.4224 33.3018 60.1498 33.5265 59.8306 33.6595C59.5114 33.7924 59.1599 33.8277 58.8206 33.7608C58.4813 33.6939 58.1695 33.5279 57.9246 33.2836C57.6798 33.0394 57.5129 32.7281 57.4451 32.389C57.3772 32.0499 57.4116 31.6983 57.5437 31.3787C57.6758 31.0591 57.8998 30.7859 58.1873 30.5937C58.4748 30.4014 58.8128 30.2988 59.1586 30.2988C59.3879 30.2982 59.615 30.3429 59.827 30.4302C60.039 30.5175 60.2317 30.6458 60.394 30.8076C60.5563 30.9695 60.6851 31.1619 60.773 31.3736C60.8609 31.5854 60.9061 31.8124 60.9061 32.0417Z" fill="#222221"/>
<path d="M111.183 49.265C111.184 49.611 111.083 49.9495 110.891 50.2376C110.699 50.5257 110.426 50.7504 110.107 50.8833C109.787 51.0161 109.436 51.0511 109.096 50.9838C108.757 50.9165 108.445 50.75 108.2 50.5054C107.956 50.2607 107.789 49.9489 107.722 49.6095C107.655 49.27 107.69 48.9183 107.822 48.5988C107.955 48.2793 108.18 48.0064 108.468 47.8148C108.756 47.6231 109.095 47.5213 109.441 47.5222C109.902 47.5234 110.345 47.7074 110.672 48.034C110.998 48.3606 111.182 48.8032 111.183 49.265Z" fill="#222221"/>
<path d="M60.4867 66.6235C60.4867 66.9682 60.3844 67.3052 60.1929 67.5918C60.0014 67.8784 59.7292 68.1018 59.4108 68.2337C59.0923 68.3656 58.7419 68.4001 58.4038 68.3329C58.0657 68.2656 57.7552 68.0996 57.5114 67.8559C57.2677 67.6122 57.1017 67.3016 57.0345 66.9635C56.9672 66.6255 57.0017 66.275 57.1336 65.9566C57.2656 65.6381 57.4889 65.3659 57.7756 65.1744C58.0622 64.9829 58.3991 64.8807 58.7438 64.8807C59.206 64.8807 59.6493 65.0643 59.9762 65.3911C60.303 65.718 60.4867 66.1613 60.4867 66.6235Z" fill="#222221"/>
<path d="M20.4857 66.288C20.4857 66.6327 20.3835 66.9697 20.192 67.2563C20.0005 67.5429 19.7283 67.7663 19.4098 67.8982C19.0913 68.0301 18.7409 68.0646 18.4028 67.9974C18.0648 67.9301 17.7542 67.7641 17.5105 67.5204C17.2667 67.2766 17.1007 66.9661 17.0335 66.628C16.9662 66.2899 17.0008 65.9395 17.1327 65.6211C17.2646 65.3026 17.488 65.0304 17.7746 64.8389C18.0612 64.6474 18.3981 64.5452 18.7428 64.5452C18.9717 64.5452 19.1983 64.5902 19.4098 64.6778C19.6212 64.7654 19.8134 64.8938 19.9752 65.0556C20.1371 65.2175 20.2654 65.4096 20.353 65.6211C20.4406 65.8325 20.4857 66.0591 20.4857 66.288Z" fill="#222221"/>
<path d="M50.8553 48.8876C50.8563 49.2334 50.7546 49.5717 50.5631 49.8597C50.3717 50.1477 50.0991 50.3724 49.7798 50.5053C49.4606 50.6383 49.1091 50.6736 48.7698 50.6067C48.4305 50.5398 48.1187 50.3737 47.8738 50.1295C47.629 49.8853 47.4621 49.574 47.3943 49.2348C47.3265 48.8957 47.3608 48.5441 47.4929 48.2246C47.6251 47.905 47.849 47.6318 48.1365 47.4395C48.424 47.2473 48.762 47.1447 49.1078 47.1447C49.5705 47.1447 50.0143 47.3282 50.3419 47.6549C50.6695 47.9816 50.8541 48.4249 50.8553 48.8876Z" fill="#222221"/>
<path d="M30.3509 49.2184C30.3509 49.5631 30.2487 49.9001 30.0572 50.1867C29.8657 50.4733 29.5935 50.6967 29.275 50.8286C28.9566 50.9605 28.6061 50.995 28.2681 50.9278C27.93 50.8605 27.6194 50.6945 27.3757 50.4508C27.132 50.2071 26.966 49.8965 26.8987 49.5584C26.8315 49.2204 26.866 48.8699 26.9979 48.5515C27.1298 48.233 27.3532 47.9608 27.6398 47.7693C27.9264 47.5778 28.2634 47.4756 28.6081 47.4756C29.0703 47.4756 29.5136 47.6592 29.8405 47.9861C30.1673 48.3129 30.3509 48.7562 30.3509 49.2184Z" fill="#222221"/>
<path d="M80.8001 66.6235C80.8001 66.9682 80.6979 67.3052 80.5064 67.5918C80.3149 67.8784 80.0427 68.1018 79.7243 68.2337C79.4058 68.3656 79.0554 68.4001 78.7173 68.3329C78.3792 68.2656 78.0687 68.0996 77.8249 67.8559C77.5812 67.6122 77.4152 67.3016 77.3479 66.9635C77.2807 66.6255 77.3152 66.275 77.4471 65.9566C77.579 65.6381 77.8024 65.3659 78.089 65.1744C78.3756 64.9829 78.7126 64.8807 79.0573 64.8807C79.5192 64.8819 79.9617 65.0659 80.2883 65.3925C80.6149 65.7191 80.7989 66.1617 80.8001 66.6235Z" fill="#222221"/>
<path d="M80.8001 101.345C80.8001 101.69 80.6979 102.027 80.5064 102.313C80.3149 102.6 80.0427 102.823 79.7243 102.955C79.4058 103.087 79.0554 103.122 78.7173 103.055C78.3792 102.987 78.0687 102.821 77.8249 102.578C77.5812 102.334 77.4152 102.023 77.3479 101.685C77.2807 101.347 77.3152 100.997 77.4471 100.678C77.579 100.36 77.8024 100.088 78.089 99.8961C78.3756 99.7046 78.7126 99.6024 79.0573 99.6024C79.5192 99.6036 79.9617 99.7876 80.2883 100.114C80.6149 100.441 80.7989 100.883 80.8001 101.345Z" fill="#D47172" stroke="black" stroke-width="0.5" stroke-miterlimit="10"/>
<path d="M47.4343 60.9663L38.8459 66.3253L30.3135 60.9663L38.8459 55.6073L47.4343 60.9663Z" fill="#D47172" stroke="black" stroke-width="0.5" stroke-miterlimit="10"/>
<path d="M38.8177 76.5587L30.3086 70.9387V61.0082L38.8457 66.302L38.8177 76.5587Z" fill="#A8DCA4" stroke="black" stroke-width="0.5" stroke-miterlimit="10"/>
<path d="M38.8184 76.5587L47.4347 70.9387V61.0082L38.8463 66.302L38.8184 76.5587Z" fill="#D28C3A" stroke="black" stroke-width="0.5" stroke-miterlimit="10"/>
<path d="M38.7393 68.7951L47.5933 62.5367" stroke="black" stroke-miterlimit="10"/>
<path d="M38.7393 70.7337L47.5933 64.4753" stroke="black" stroke-miterlimit="10"/>
<path d="M38.7393 72.6722L47.5933 66.4139" stroke="black" stroke-miterlimit="10"/>
<path d="M38.7393 74.6108L47.5933 68.3524" stroke="black" stroke-miterlimit="10"/>
<path d="M107.432 24.8L99.2306 29.9167L91.085 24.8L99.2306 19.6787L107.432 24.8Z" fill="#A8DCA4" stroke="black" stroke-width="0.5" stroke-miterlimit="10"/>
<path d="M99.2069 39.6887L91.0752 34.3251V24.8373L99.2302 29.8981L99.2069 39.6887Z" fill="#D89CC7" stroke="black" stroke-width="0.5" stroke-miterlimit="10"/>
<path d="M99.207 39.6887L107.437 34.3251V24.8373L99.2303 29.8981L99.207 39.6887Z" fill="#222221" stroke="#222221" stroke-width="0.5" stroke-miterlimit="10"/>
<path d="M93.6249 29.5858C93.5909 29.6794 93.552 29.7712 93.5084 29.8608C93.0797 30.7182 91.6956 32.2467 90.6891 32.3399C90.5159 32.371 90.3375 32.3538 90.1734 32.2904C90.0093 32.227 89.8658 32.1197 89.7585 31.9802C89.6513 31.8407 89.5844 31.6744 89.5653 31.4996C89.5461 31.3247 89.5754 31.1479 89.6499 30.9885C90.0227 30.0239 91.4487 29.8328 92.0684 29.0592C92.3341 28.7237 92.5344 28.2531 93.0004 28.2111C93.1764 28.2134 93.3458 28.2777 93.4788 28.3929C93.6119 28.508 93.6999 28.6664 93.7274 28.8402C93.7635 29.0935 93.728 29.3517 93.6249 29.5858Z" fill="#222221"/>
<path d="M92.623 34.3903C92.9119 33.6726 93.3033 32.8665 94.0536 32.6894C94.1674 32.6585 94.2865 32.652 94.4029 32.6705C94.5194 32.689 94.6306 32.732 94.7293 32.7966C95.13 33.0995 95.0322 33.7286 94.8924 34.1946L94.3751 35.9607C94.1235 36.8228 93.3825 38.1975 92.2595 37.4892C91.211 36.8181 92.2968 35.2058 92.623 34.3903Z" fill="#222221"/>
<path d="M94.7996 30.0845C94.7647 30.1983 94.7647 30.3201 94.7996 30.434C94.8975 30.7042 95.2656 30.7415 95.5545 30.6763C96.7055 30.406 97.5024 29.3435 97.9498 28.2531C98.0848 27.9704 98.1579 27.6622 98.1641 27.349C98.1713 27.2246 98.151 27.1 98.1046 26.9843C98.0581 26.8686 97.9868 26.7646 97.8956 26.6796C97.8044 26.5946 97.6955 26.5308 97.5768 26.4926C97.4581 26.4545 97.3325 26.443 97.2088 26.459C96.7708 26.5568 96.6683 27.116 96.4725 27.4469C95.946 28.323 95.0652 29.0732 94.7996 30.0845Z" fill="#222221"/>
<path d="M96.8263 32.5776C96.9288 33.2206 98.8767 34.0921 99.1563 34.2225C100.331 34.7491 102.241 33.8171 100.773 32.8245C99.9959 32.3801 99.1306 32.1113 98.2383 32.037C97.9722 31.9835 97.6981 31.9835 97.4321 32.037C96.9568 32.1768 96.7937 32.3632 96.8263 32.5776Z" fill="#222221"/>
<path d="M97.4557 36.6504C97.5909 36.3615 97.9683 36.0726 98.1967 36.2962C98.2596 36.3715 98.3028 36.4611 98.3225 36.5572C98.5733 37.4667 98.6492 38.4154 98.5462 39.3532C98.4716 40.0382 97.5722 41.0355 97.069 40.0708C96.7567 39.5023 97.1668 37.2329 97.4557 36.6504Z" fill="#222221"/>
<path d="M122.619 45.318C122.494 44.7496 122.161 44.2486 121.685 43.9134C121.209 43.5782 120.625 43.4332 120.048 43.5068C119.471 43.5804 118.942 43.8673 118.566 44.3112C118.189 44.755 117.993 45.3236 118.015 45.9052V55.2671C117.991 55.8491 118.187 56.4187 118.563 56.8637C118.939 57.3086 119.468 57.5966 120.046 57.6709C120.623 57.7451 121.208 57.6003 121.684 57.2649C122.161 56.9295 122.494 56.4279 122.619 55.8589C122.748 56.3597 123.04 56.8033 123.449 57.1197C123.859 57.4361 124.361 57.6073 124.879 57.6064C125.396 57.6073 125.899 57.4361 126.308 57.1197C126.717 56.8033 127.01 56.3597 127.139 55.8589C127.268 56.3605 127.561 56.8047 127.971 57.1211C128.382 57.4376 128.886 57.6084 129.404 57.6064C129.921 57.6073 130.424 57.4361 130.833 57.1197C131.242 56.8033 131.534 56.3597 131.664 55.8589C131.793 56.3605 132.086 56.8047 132.496 57.1211C132.906 57.4376 133.41 57.6084 133.928 57.6064C134.446 57.6073 134.949 57.4361 135.358 57.1197C135.767 56.8033 136.059 56.3597 136.189 55.8589C136.313 56.4279 136.647 56.9295 137.123 57.2649C137.599 57.6003 138.184 57.7451 138.762 57.6709C139.339 57.5966 139.868 57.3086 140.244 56.8637C140.62 56.4187 140.816 55.8491 140.793 55.2671V45.8912C140.825 45.302 140.632 44.7225 140.254 44.2698C139.875 43.8171 139.339 43.5248 138.753 43.4521C138.168 43.3793 137.576 43.5315 137.099 43.8778C136.621 44.2241 136.292 44.7388 136.179 45.318C136.051 44.8163 135.759 44.3717 135.35 44.0544C134.94 43.7371 134.437 43.5652 133.919 43.5658C133.4 43.5642 132.896 43.7356 132.486 44.053C132.076 44.3703 131.783 44.8155 131.654 45.318C131.526 44.8163 131.234 44.3717 130.825 44.0544C130.415 43.7371 129.912 43.5652 129.394 43.5658C128.876 43.5642 128.371 43.7356 127.961 44.053C127.551 44.3703 127.258 44.8155 127.13 45.318C127.001 44.8163 126.709 44.3717 126.3 44.0544C125.891 43.7371 125.387 43.5652 124.869 43.5658C124.353 43.5673 123.852 43.7401 123.445 44.0573C123.037 44.3744 122.747 44.8179 122.619 45.318Z" fill="#D89CC7" stroke="black" stroke-width="0.5" stroke-miterlimit="10"/>
<path d="M129.395 47.9882C128.803 47.9888 128.229 48.1921 127.769 48.5643C127.308 48.9365 126.989 49.4551 126.864 50.0339C126.731 49.4091 126.371 48.8559 125.854 48.4808C125.337 48.1057 124.699 47.9353 124.064 48.0025C123.428 48.0696 122.84 48.3695 122.413 48.8444C121.985 49.3193 121.749 49.9356 121.749 50.5745C121.749 51.2133 121.985 51.8296 122.413 52.3045C122.84 52.7794 123.428 53.0793 124.064 53.1465C124.699 53.2136 125.337 53.0432 125.854 52.6681C126.371 52.293 126.731 51.7398 126.864 51.115C126.987 51.6953 127.305 52.2157 127.766 52.5892C128.227 52.9626 128.802 53.1664 129.395 53.1664C129.988 53.1664 130.563 52.9626 131.024 52.5892C131.484 52.2157 131.803 51.6953 131.925 51.115C132.059 51.7398 132.419 52.293 132.936 52.6681C133.453 53.0432 134.091 53.2136 134.726 53.1465C135.362 53.0793 135.95 52.7794 136.377 52.3045C136.804 51.8296 137.041 51.2133 137.041 50.5745C137.041 49.9356 136.804 49.3193 136.377 48.8444C135.95 48.3695 135.362 48.0696 134.726 48.0025C134.091 47.9353 133.453 48.1057 132.936 48.4808C132.419 48.8559 132.059 49.4091 131.925 50.0339C131.801 49.4551 131.482 48.9365 131.021 48.5643C130.561 48.1921 129.987 47.9888 129.395 47.9882Z" fill="#D47172" stroke="black" stroke-width="0.5" stroke-miterlimit="10"/>
<path d="M138.431 56.8608C138.637 56.8608 138.842 56.8201 139.033 56.7408C139.224 56.6616 139.397 56.5455 139.543 56.3992C139.689 56.2529 139.804 56.0792 139.883 55.8881C139.962 55.6971 140.002 55.4924 140.001 55.2857V49.0041" fill="#D89CC7"/>
<path d="M138.431 56.8608C138.637 56.8608 138.842 56.8201 139.033 56.7408C139.224 56.6616 139.397 56.5455 139.543 56.3992C139.689 56.2529 139.804 56.0792 139.883 55.8881C139.962 55.6971 140.002 55.4924 140.001 55.2857V49.0041" stroke="black" stroke-width="0.5" stroke-miterlimit="10"/>
<path d="M133.896 48.6545C134.186 48.581 134.489 48.5804 134.778 48.6528C135.068 48.7252 135.335 48.8683 135.555 49.0693" stroke="black" stroke-width="0.5" stroke-miterlimit="10"/>
<path d="M136.044 49.6145C136.269 49.9687 136.399 50.3747 136.421 50.7935" stroke="black" stroke-width="0.5" stroke-miterlimit="10"/>
<path d="M129.143 48.7571C129.485 48.6706 129.846 48.7033 130.167 48.8499C130.488 48.9964 130.75 49.2481 130.909 49.5633" stroke="black" stroke-width="0.5" stroke-miterlimit="10"/>
<path d="M131.007 51.5391C131.147 51.0725 131.147 50.5751 131.007 50.1085" stroke="black" stroke-width="0.5" stroke-miterlimit="10"/>
<path d="M125.578 51.623C125.712 51.2936 125.772 50.9391 125.754 50.5841C125.736 50.2292 125.641 49.8824 125.476 49.5679" stroke="black" stroke-width="0.5" stroke-miterlimit="10"/>
<path d="M137.601 56.241C137.724 56.3107 137.865 56.3453 138.007 56.3412C138.149 56.3371 138.287 56.2944 138.407 56.2177C138.644 56.0627 138.852 55.8671 139.022 55.6399" stroke="black" stroke-width="0.5" stroke-miterlimit="10"/>
<path d="M140.057 47.5082V46.7579" stroke="black" stroke-width="0.5" stroke-miterlimit="10"/>
<path d="M97.5368 75.2962C99.4768 73.3562 99.4768 70.2109 97.5368 68.271C95.5969 66.331 92.4516 66.331 90.5116 68.271C88.5717 70.2109 88.5717 73.3562 90.5116 75.2962C92.4516 77.2361 95.5969 77.2361 97.5368 75.2962Z" fill="black"/>
<path d="M108.956 75.2943C110.896 73.3543 110.896 70.209 108.956 68.2691C107.016 66.3291 103.871 66.3291 101.931 68.2691C99.9906 70.209 99.9906 73.3543 101.931 75.2943C103.871 77.2342 107.016 77.2342 108.956 75.2943Z" fill="black"/>
<path d="M104.456 62.5146C105.089 59.8451 103.438 57.1679 100.768 56.5349C98.0989 55.9019 95.4217 57.5528 94.7887 60.2223C94.1557 62.8917 95.8066 65.5689 98.4761 66.2019C101.146 66.835 103.823 65.1841 104.456 62.5146Z" fill="black"/>
<path d="M96.5827 74.9754C98.5227 73.0355 98.5227 69.8902 96.5827 67.9502C94.6428 66.0103 91.4975 66.0103 89.5575 67.9502C87.6176 69.8902 87.6176 73.0355 89.5575 74.9754C91.4975 76.9154 94.6428 76.9154 96.5827 74.9754Z" fill="#A8DCA4" stroke="black" stroke-width="0.5" stroke-miterlimit="10"/>
<path d="M92.7949 74.21H92.7343H92.6877C92.5292 74.21 92.3848 74.21 92.2543 74.21L91.8955 74.1634C91.7886 74.1425 91.6828 74.1161 91.5786 74.0842C91.4714 74.0562 91.3689 74.0189 91.2617 73.9863C91.2722 73.8695 91.294 73.754 91.327 73.6415C91.358 73.5265 91.3953 73.4147 91.4388 73.306C91.6112 73.3619 91.793 73.4131 91.9794 73.4551C92.198 73.5039 92.4218 73.5258 92.6457 73.5203C92.9746 73.5445 93.3023 73.4593 93.5777 73.278C93.6786 73.1965 93.759 73.0925 93.8124 72.9744C93.8658 72.8562 93.8908 72.7272 93.8853 72.5976C93.8907 72.4732 93.8684 72.349 93.8201 72.2342C93.7772 72.1351 93.7098 72.0485 93.6243 71.9825C93.5239 71.9007 93.4125 71.8333 93.2935 71.7821L92.8275 71.5818L92.4593 71.428C92.3135 71.3675 92.1719 71.2974 92.0353 71.2183C91.9098 71.1447 91.7966 71.0519 91.6998 70.9434C91.6011 70.8361 91.5264 70.709 91.4807 70.5706C91.4251 70.4039 91.3984 70.229 91.4015 70.0533C91.388 69.6954 91.517 69.3468 91.7603 69.084C92.0394 68.8142 92.4033 68.6495 92.7902 68.618V67.8724C92.8751 67.8487 92.963 67.8377 93.0512 67.8398C93.1454 67.838 93.2394 67.849 93.3308 67.8724V68.5854C93.5451 68.5854 93.7548 68.6227 93.9645 68.6553C94.147 68.6856 94.3264 68.7324 94.5004 68.7951C94.4715 69.0141 94.4151 69.2286 94.3327 69.4335C94.1802 69.3792 94.0245 69.3341 93.8667 69.2984C93.6609 69.2587 93.4517 69.24 93.2422 69.2424C92.9803 69.2253 92.7196 69.2905 92.4966 69.4289C92.4075 69.493 92.3363 69.579 92.2898 69.6785C92.2433 69.778 92.223 69.8878 92.231 69.9974C92.2287 70.1086 92.2527 70.2187 92.3009 70.3189C92.3518 70.4116 92.4217 70.4926 92.5059 70.5566C92.6066 70.6318 92.7162 70.6944 92.8321 70.743C92.958 70.8035 93.0978 70.8641 93.2562 70.9294L93.5498 71.0552C93.7226 71.1233 93.8907 71.2027 94.0531 71.2929C94.1965 71.3679 94.3258 71.4672 94.4352 71.5864C94.5414 71.7037 94.6251 71.8396 94.6822 71.9872C94.744 72.167 94.7739 72.3563 94.7707 72.5464C94.7875 72.9375 94.6523 73.32 94.3932 73.6135C94.1136 73.9061 93.7449 74.0979 93.3447 74.1587V75.0441L93.2143 75.0674H93.0791H92.944L92.8042 75.0441L92.7949 74.21Z" fill="black"/>
<path d="M109.306 72.5995C109.939 69.9301 108.288 67.2529 105.619 66.6199C102.95 65.9869 100.272 67.6377 99.6393 70.3072C99.0063 72.9767 100.657 75.6539 103.327 76.2869C105.996 76.9199 108.673 75.269 109.306 72.5995Z" fill="#A8DCA4" stroke="black" stroke-width="0.5" stroke-miterlimit="10"/>
<path d="M104.193 74.21H104.133H104.086C103.928 74.21 103.783 74.21 103.653 74.21L103.294 74.1634C103.187 74.1401 103.08 74.1168 102.977 74.0842L102.66 73.9863C102.671 73.8695 102.692 73.754 102.725 73.6415C102.756 73.5265 102.794 73.4147 102.837 73.306C103.01 73.3619 103.191 73.4131 103.378 73.4551C103.598 73.5041 103.823 73.526 104.049 73.5203C104.378 73.5448 104.706 73.4596 104.981 73.278C105.082 73.1965 105.162 73.0925 105.215 72.9744C105.269 72.8562 105.294 72.7272 105.288 72.5976C105.294 72.4731 105.271 72.349 105.223 72.2342C105.18 72.1351 105.113 72.0485 105.027 71.9825C104.927 71.9007 104.816 71.8333 104.697 71.7821L104.231 71.5818L103.862 71.428C103.717 71.3675 103.575 71.2974 103.438 71.2183C103.313 71.1446 103.2 71.0519 103.103 70.9433C103.006 70.8349 102.931 70.7081 102.884 70.5705C102.828 70.4039 102.801 70.2289 102.805 70.0533C102.791 69.6954 102.92 69.3468 103.163 69.084C103.442 68.8142 103.806 68.6495 104.193 68.618V67.8724C104.278 67.8492 104.366 67.8383 104.454 67.8398C104.549 67.838 104.643 67.849 104.734 67.8724V68.5854C104.948 68.5854 105.163 68.6227 105.368 68.6553C105.55 68.6856 105.729 68.7324 105.904 68.7951C105.877 69.0145 105.82 69.2293 105.736 69.4335C105.583 69.3792 105.428 69.3341 105.27 69.2984C105.064 69.2585 104.855 69.2398 104.645 69.2424C104.383 69.2253 104.123 69.2905 103.9 69.4288C103.811 69.4932 103.741 69.5794 103.695 69.6789C103.649 69.7785 103.63 69.8882 103.639 69.9974C103.637 70.108 103.66 70.2176 103.704 70.3189C103.755 70.4116 103.825 70.4926 103.909 70.5566C104.01 70.6308 104.12 70.6933 104.235 70.743C104.361 70.8035 104.501 70.8641 104.664 70.9294L104.953 71.0552C105.126 71.1233 105.294 71.2027 105.456 71.2928C105.6 71.3678 105.729 71.4672 105.838 71.5864C105.944 71.7037 106.028 71.8396 106.085 71.9872C106.147 72.167 106.177 72.3562 106.174 72.5464C106.19 72.9366 106.057 73.3183 105.801 73.6135C105.519 73.9051 105.149 74.0965 104.748 74.1587V75.0441L104.617 75.0674H104.487H104.347L104.207 75.0441L104.193 74.21Z" fill="black"/>
<path d="M103.498 62.2001C104.131 59.5306 102.48 56.8534 99.8104 56.2204C97.1409 55.5874 94.4637 57.2383 93.8307 59.9077C93.1977 62.5772 94.8486 65.2544 97.5181 65.8874C100.188 66.5204 102.865 64.8695 103.498 62.2001Z" fill="#A8DCA4" stroke="black" stroke-width="0.5" stroke-miterlimit="10"/>
<path d="M98.3867 63.7996H98.3261H98.2795C98.1351 63.8072 97.9905 63.8072 97.8461 63.7996C97.7256 63.7918 97.6058 63.7763 97.4873 63.753C97.3801 63.7353 97.2742 63.7104 97.1704 63.6784L96.8535 63.5759C96.8644 63.4607 96.8863 63.3468 96.9188 63.2357C96.9498 63.1208 96.9871 63.009 97.0306 62.9002C97.203 62.9561 97.3848 63.0074 97.5712 63.0493C97.7913 63.0984 98.0167 63.1203 98.2422 63.1146C98.5719 63.1403 98.9005 63.0532 99.1742 62.8676C99.2761 62.7878 99.3576 62.6849 99.4119 62.5675C99.4662 62.45 99.4917 62.3212 99.4864 62.1919C99.4903 62.0671 99.4664 61.9429 99.4165 61.8284C99.3726 61.7286 99.3055 61.6408 99.2208 61.5721C99.1197 61.4924 99.0085 61.4266 98.8899 61.3764L98.4239 61.1714L98.0558 61.0176C97.9097 60.9595 97.768 60.891 97.6317 60.8125C97.5063 60.7389 97.3931 60.6461 97.2962 60.5376C97.2001 60.4284 97.1258 60.3019 97.0772 60.1648C97.0216 59.9981 96.9948 59.8232 96.998 59.6475C96.9844 59.2897 97.1135 58.941 97.3568 58.6783C97.6365 58.4094 98.0001 58.2449 98.3867 58.2123V57.434C98.4722 57.4145 98.5598 57.4051 98.6476 57.4061C98.7415 57.4052 98.8353 57.4146 98.9272 57.434V58.1517C99.1398 58.1606 99.3515 58.184 99.561 58.2216C99.7435 58.2519 99.9228 58.2987 100.097 58.3614C100.072 58.5812 100.016 58.7963 99.9291 58.9998C99.7773 58.9435 99.6215 58.8983 99.4631 58.8647C99.2574 58.8248 99.0482 58.8061 98.8387 58.8087C98.5775 58.7926 98.3175 58.856 98.0931 58.9905C98.0047 59.0562 97.9345 59.1433 97.8888 59.2435C97.8432 59.3437 97.8237 59.4539 97.8321 59.5637C97.8293 59.6734 97.8533 59.7822 97.902 59.8805C97.9482 59.9763 98.017 60.0595 98.1024 60.1229C98.2037 60.1971 98.3132 60.2596 98.4286 60.3093C98.5544 60.3652 98.6942 60.4304 98.8573 60.4957L99.1462 60.6168C99.3183 60.6883 99.4863 60.7692 99.6495 60.8591C99.7915 60.9344 99.9206 61.0319 100.032 61.1481C100.137 61.2661 100.22 61.4018 100.279 61.5488C100.34 61.7304 100.37 61.9211 100.367 62.1127C100.383 62.5029 100.25 62.8846 99.9943 63.1798C99.712 63.4714 99.3422 63.6628 98.9412 63.725V64.6104H98.8107H98.6802H98.5404H98.4006L98.3867 63.7996Z" fill="black"/>
<path d="M167.15 74.9895C171.321 70.8185 171.321 64.0558 167.15 59.8847C162.979 55.7136 156.217 55.7136 152.046 59.8847C147.874 64.0558 147.874 70.8185 152.046 74.9895C156.217 79.1606 162.979 79.1606 167.15 74.9895Z" fill="#D47172" stroke="black" stroke-width="0.5" stroke-miterlimit="10"/>
<path d="M159.596 78.1197C164.074 78.1197 167.704 73.3378 167.704 67.439C167.704 61.5402 164.074 56.7583 159.596 56.7583C155.118 56.7583 151.487 61.5402 151.487 67.439C151.487 73.3378 155.118 78.1197 159.596 78.1197Z" stroke="black" stroke-width="0.5" stroke-miterlimit="10"/>
<path d="M159.595 56.7583C161.245 56.7583 162.583 61.5395 162.583 67.439C162.583 73.3386 161.245 78.1197 159.595 78.1197C157.946 78.1197 156.608 73.3386 156.608 67.439C156.608 61.5395 157.946 56.7583 159.595 56.7583Z" stroke="black" stroke-width="0.5" stroke-miterlimit="10"/>
<path d="M159.597 87.1555C165.496 87.1555 170.277 83.8152 170.277 79.6948C170.277 75.5744 165.496 72.2341 159.597 72.2341C153.698 72.2341 148.916 75.5744 148.916 79.6948C148.916 83.8152 153.698 87.1555 159.597 87.1555Z" stroke="black" stroke-width="0.5" stroke-miterlimit="10"/>
<path d="M159.597 62.9095C165.496 62.9095 170.277 59.5693 170.277 55.4489C170.277 51.3284 165.496 47.9882 159.597 47.9882C153.698 47.9882 148.916 51.3284 148.916 55.4489C148.916 59.5693 153.698 62.9095 159.597 62.9095Z" stroke="black" stroke-width="0.5" stroke-miterlimit="10"/>
<path d="M147.336 68.0495H171.363" stroke="black" stroke-width="0.5" stroke-miterlimit="10"/>
<path d="M169.279 69.1959C169.177 69.9595 168.972 70.7056 168.669 71.414" stroke="black" stroke-width="0.5" stroke-miterlimit="10"/>
<path d="M169.106 64.5452C169.338 65.4706 169.425 66.4264 169.363 67.3784" stroke="black" stroke-width="0.5" stroke-miterlimit="10"/>
<path d="M128.635 77.2064C136.04 77.2064 142.042 80.0024 142.042 83.4229C142.042 85.4546 140.066 86.8526 138.435 87.6635C137.181 88.2691 135.859 88.7228 134.498 89.0149C132.645 89.4281 130.757 89.656 128.859 89.6952C128.698 91.7081 127.898 93.6168 126.576 95.1428C126.118 95.7551 125.457 96.1846 124.712 96.3544C125.941 94.3316 126.527 91.9837 126.394 89.6207C123.985 89.4567 121.622 88.8863 119.404 87.9337C117.596 87.1369 115.21 85.6783 115.21 83.4229C115.21 79.9884 121.231 77.2064 128.635 77.2064Z" fill="#D28C3A" stroke="black" stroke-width="0.5" stroke-miterlimit="10"/>
<path d="M138.337 83.1246C138.306 83.684 138.059 84.2097 137.65 84.5921C137.24 84.9745 136.699 85.1843 136.139 85.1777C135.579 85.1711 135.042 84.9486 134.642 84.5566C134.242 84.1647 134.008 83.6334 133.989 83.0733C133.951 82.8679 133.975 82.6557 134.058 82.4639C134.141 82.272 134.279 82.1094 134.455 81.9969C134.65 81.9374 134.86 81.9555 135.042 82.0476C135.224 82.1397 135.362 82.2986 135.429 82.4908C135.558 82.8936 135.528 83.3304 135.345 83.7118C135.106 84.2844 134.69 84.7665 134.16 85.0888C133.629 85.411 133.01 85.5571 132.391 85.5059C131.773 85.4132 131.199 85.1306 130.749 84.6973C130.299 84.2639 129.995 83.7013 129.879 83.0873C129.818 82.8789 129.814 82.6576 129.869 82.4474C129.924 82.2371 130.036 82.0459 130.192 81.8944C130.616 81.5915 131.259 81.9503 131.408 82.4675C131.461 82.736 131.452 83.013 131.383 83.2777C131.313 83.5425 131.185 83.788 131.007 83.996C130.683 84.4252 130.258 84.7687 129.771 84.9969C129.284 85.2251 128.748 85.331 128.211 85.3055C127.684 85.2978 127.168 85.1515 126.715 84.8814C126.133 84.4574 125.55 83.106 126.007 82.4256C126.037 82.3651 126.081 82.3126 126.136 82.2728C126.19 82.233 126.253 82.2069 126.32 82.1968C126.387 82.1868 126.455 82.193 126.519 82.215C126.583 82.237 126.641 82.274 126.687 82.3231C126.788 82.4248 126.868 82.5456 126.921 82.6784C126.975 82.8112 127.001 82.9534 126.999 83.0966C126.972 83.7218 126.728 84.3181 126.31 84.7836C125.958 85.174 125.493 85.4446 124.98 85.5574C124.467 85.6702 123.931 85.6196 123.449 85.4127C122.966 85.178 122.553 84.8208 122.251 84.3768C121.949 83.9329 121.769 83.4176 121.729 82.8823C121.692 82.4769 121.859 81.9503 122.246 81.9503C122.535 81.9503 122.712 82.2905 122.768 82.584C122.856 83.0072 122.841 83.445 122.726 83.8615C122.611 84.2779 122.399 84.661 122.106 84.9793C121.817 85.2819 121.454 85.5047 121.053 85.6263C120.653 85.748 120.227 85.7642 119.818 85.6736" stroke="black" stroke-width="0.5" stroke-miterlimit="10"/>
<path d="M140.793 84.9979C140.22 86.3167 138.803 87.0577 137.424 87.4538" stroke="black" stroke-width="0.5" stroke-miterlimit="10"/>
<path d="M120.783 79.8672C119.703 80.2246 118.688 80.755 117.777 81.4377" stroke="black" stroke-width="0.5" stroke-miterlimit="10"/>
<path d="M90.4886 14.2638C90.4886 14.6085 90.3864 14.9454 90.1949 15.232C90.0034 15.5187 89.7312 15.742 89.4127 15.8739C89.0943 16.0059 88.7438 16.0404 88.4058 15.9731C88.0677 15.9059 87.7571 15.7399 87.5134 15.4961C87.2697 15.2524 87.1037 14.9419 87.0364 14.6038C86.9692 14.2657 87.0037 13.9153 87.1356 13.5968C87.2675 13.2784 87.4909 13.0062 87.7775 12.8147C88.0641 12.6232 88.4011 12.5209 88.7458 12.5209C89.208 12.5209 89.6513 12.7046 89.9782 13.0314C90.305 13.3582 90.4886 13.8015 90.4886 14.2638Z" fill="#222221"/>
<path d="M111.183 14.2638C111.184 14.6098 111.083 14.9483 110.891 15.2364C110.699 15.5245 110.426 15.7492 110.107 15.882C109.787 16.0149 109.436 16.0499 109.096 15.9826C108.757 15.9153 108.445 15.7488 108.2 15.5041C107.956 15.2594 107.789 14.9476 107.722 14.6082C107.655 14.2688 107.69 13.9171 107.822 13.5975C107.955 13.278 108.18 13.0052 108.468 12.8135C108.756 12.6218 109.095 12.52 109.441 12.5209C109.903 12.5209 110.346 12.7046 110.673 13.0314C111 13.3583 111.183 13.8016 111.183 14.2638Z" fill="#222221"/>
<path d="M37.9323 40.192C37.9383 39.8025 38.0942 39.4302 38.3675 39.1526C38.6408 38.875 39.0106 38.7134 39.4 38.7014C39.7894 38.6894 40.1685 38.828 40.4584 39.0882C40.7483 39.3484 40.9267 39.7104 40.9567 40.0988C40.9567 40.1501 40.9567 40.2013 40.9567 40.2526C41.536 40.1377 42.1026 39.966 42.6483 39.74C42.6156 39.6934 42.5784 39.6561 42.5457 39.6048C42.4304 39.4359 42.3505 39.2454 42.3108 39.0447C42.2711 38.8441 42.2725 38.6374 42.3148 38.4373C42.3572 38.2372 42.4396 38.0477 42.5572 37.8804C42.6747 37.713 42.825 37.5711 42.9989 37.4634C43.1727 37.3557 43.3666 37.2843 43.5689 37.2536C43.7711 37.2228 43.9774 37.2333 44.1755 37.2845C44.3735 37.3357 44.5591 37.4265 44.7211 37.5514C44.8831 37.6762 45.0182 37.8326 45.1181 38.0111C45.1442 38.0595 45.1675 38.1093 45.188 38.1602C45.636 37.769 46.0449 37.3351 46.4089 36.8648C46.3518 36.8443 46.2958 36.821 46.2411 36.7949C46.0474 36.7129 45.8728 36.5914 45.7286 36.4382C45.5844 36.285 45.4737 36.1034 45.4035 35.9051C45.3334 35.7067 45.3053 35.4959 45.3211 35.2861C45.337 35.0763 45.3963 34.8721 45.4955 34.6865C45.5946 34.501 45.7313 34.3381 45.8969 34.2082C46.0625 34.0784 46.2533 33.9845 46.4571 33.9326C46.661 33.8806 46.8735 33.8716 47.081 33.9063C47.2885 33.941 47.4865 34.0185 47.6624 34.134C47.7146 34.1644 47.7645 34.1986 47.8115 34.2365C48.0056 33.6706 48.1429 33.0868 48.2216 32.4937L48.0259 32.5216C47.8217 32.5374 47.6165 32.5116 47.4226 32.4457C47.2287 32.3799 47.0502 32.2754 46.8978 32.1386C46.7454 32.0019 46.6224 31.8356 46.5361 31.6499C46.4498 31.4642 46.402 31.2629 46.3957 31.0583C46.3894 30.8536 46.4247 30.6498 46.4994 30.4591C46.5741 30.2685 46.6866 30.0949 46.8303 29.949C46.974 29.8031 47.1457 29.6879 47.3352 29.6102C47.5247 29.5326 47.728 29.4942 47.9327 29.4973C47.9993 29.4901 48.0665 29.4901 48.1331 29.4973C48.0188 28.9037 47.8455 28.323 47.6158 27.7638C47.561 27.8154 47.5017 27.8622 47.4387 27.9036C47.0984 28.0941 46.6977 28.1459 46.3201 28.0483C45.9424 27.9507 45.617 27.7112 45.4116 27.3797C45.2062 27.0481 45.1366 26.6501 45.2173 26.2685C45.2981 25.8869 45.5229 25.5512 45.845 25.3313C45.9089 25.2931 45.976 25.2603 46.0454 25.2334C45.6472 24.7738 45.2038 24.3554 44.722 23.9845C44.6949 24.0607 44.6638 24.1353 44.6288 24.2082C44.4281 24.5408 44.1072 24.7836 43.7326 24.8864C43.3579 24.9891 42.9581 24.944 42.6158 24.7603C42.2735 24.5765 42.0149 24.2683 41.8934 23.8993C41.772 23.5303 41.797 23.1287 41.9632 22.7776C42.0024 22.707 42.0476 22.64 42.0984 22.5772C41.5181 22.3831 40.9204 22.2458 40.3136 22.1671C40.3339 22.2479 40.3449 22.3308 40.3462 22.4141C40.3586 22.8145 40.2114 23.2035 39.937 23.4954C39.6625 23.7873 39.2834 23.9582 38.883 23.9705C38.4826 23.9829 38.0936 23.8357 37.8017 23.5613C37.5098 23.2869 37.3389 22.9077 37.3265 22.5073C37.3196 22.4282 37.3196 22.3487 37.3265 22.2696C36.7271 22.3875 36.1415 22.5671 35.5791 22.8055C35.6364 22.8646 35.6864 22.9303 35.7282 23.0013C35.8328 23.1698 35.9032 23.3574 35.9354 23.5532C35.9676 23.749 35.9608 23.9492 35.9156 24.1425C35.8704 24.3357 35.7876 24.5181 35.6718 24.6793C35.5561 24.8405 35.4098 24.9773 35.2412 25.0819C35.0726 25.1866 34.885 25.257 34.6892 25.2892C34.4934 25.3213 34.2932 25.3146 34.1 25.2694C33.9068 25.2242 33.7244 25.1413 33.5632 25.0256C33.402 24.9099 33.2652 24.7636 33.1605 24.595C33.1208 24.5279 33.0865 24.4578 33.058 24.3853C32.6059 24.7977 32.1954 25.2534 31.8324 25.746C31.908 25.7686 31.9813 25.7983 32.0514 25.8345C32.3841 26.0352 32.6269 26.3561 32.7296 26.7307C32.8324 27.1054 32.7872 27.5052 32.6035 27.8475C32.4198 28.1898 32.1115 28.4484 31.7425 28.5699C31.3735 28.6913 30.9719 28.6663 30.6208 28.5001C30.5556 28.4628 30.4997 28.4208 30.4391 28.3789C30.2496 28.9517 30.117 29.5417 30.043 30.1404C30.1129 30.1404 30.1828 30.1404 30.2573 30.1124C30.6469 30.1184 31.0191 30.2742 31.2967 30.5476C31.5743 30.8209 31.7359 31.1907 31.7479 31.5801C31.7599 31.9695 31.6214 32.3485 31.3611 32.6384C31.1009 32.9283 30.739 33.1068 30.3505 33.1368C30.287 33.1437 30.223 33.1437 30.1595 33.1368C30.28 33.7229 30.4579 34.2957 30.6907 34.847L30.8398 34.7305C31.0088 34.6151 31.1993 34.5352 31.4 34.4955C31.6006 34.4558 31.8072 34.4572 32.0073 34.4995C32.2075 34.5419 32.3969 34.6243 32.5643 34.7419C32.7317 34.8595 32.8735 35.0097 32.9812 35.1836C33.089 35.3575 33.1604 35.5514 33.1911 35.7536C33.2219 35.9558 33.2113 36.1622 33.1601 36.3602C33.109 36.5582 33.0182 36.7439 32.8933 36.9059C32.7684 37.0679 32.612 37.2029 32.4336 37.3028C32.3863 37.3323 32.3364 37.3572 32.2844 37.3774C32.6775 37.821 33.113 38.2252 33.5846 38.5843C33.5846 38.533 33.6265 38.4771 33.6545 38.4259C33.7423 38.2403 33.867 38.0746 34.0209 37.9387C34.1748 37.8028 34.3548 37.6997 34.5498 37.6355C34.7448 37.5713 34.9508 37.5475 35.1553 37.5654C35.3598 37.5833 35.5585 37.6426 35.7394 37.7397C35.9203 37.8367 36.0796 37.9696 36.2075 38.1301C36.3355 38.2907 36.4295 38.4755 36.4838 38.6735C36.5381 38.8715 36.5516 39.0785 36.5234 39.2818C36.4952 39.4852 36.426 39.6807 36.32 39.8565C36.2916 39.9018 36.2605 39.9454 36.2268 39.987C36.7884 40.1763 37.3676 40.309 37.9556 40.3831C37.9417 40.3203 37.9338 40.2563 37.9323 40.192ZM32.9741 31.4452C32.9323 30.2256 33.2533 29.0211 33.8965 27.9841C34.5397 26.9471 35.4761 26.1243 36.5873 25.6199C37.6984 25.1155 38.9343 24.9522 40.1383 25.1506C41.3423 25.3491 42.4604 25.9004 43.3509 26.7347C44.2414 27.569 44.8642 28.6488 45.1406 29.8373C45.417 31.0259 45.3345 32.2698 44.9035 33.4114C44.4724 34.553 43.7123 35.541 42.7194 36.2503C41.7265 36.9597 40.5454 37.3584 39.3257 37.396C37.6947 37.4475 36.11 36.8499 34.9192 35.7342C33.7284 34.6186 33.0288 33.076 32.9741 31.4452Z" fill="#222221"/>
<path d="M43.7441 30.0006C43.4954 29.0904 42.9824 28.2744 42.27 27.6557C41.5577 27.0369 40.6779 26.6433 39.7418 26.5245C38.8058 26.4057 37.8555 26.567 37.0112 26.9882C36.1668 27.4093 35.4663 28.0713 34.9981 28.8905C34.5299 29.7097 34.315 30.6493 34.3807 31.5906C34.4464 32.5318 34.7897 33.4325 35.3671 34.1787C35.9446 34.9249 36.7303 35.4832 37.625 35.783C38.5196 36.0827 39.4831 36.1105 40.3935 35.8629C41.6149 35.5293 42.654 34.7245 43.2822 33.6252C43.9105 32.526 44.0766 31.2223 43.7441 30.0006ZM39.9229 34.134C39.355 34.291 38.7533 34.2759 38.194 34.0908C37.6346 33.9057 37.1428 33.5588 36.7807 33.094C36.4186 32.6292 36.2025 32.0675 36.1597 31.4799C36.117 30.8923 36.2495 30.3052 36.5406 29.7929C36.8316 29.2806 37.2681 28.8662 37.7948 28.6021C38.3214 28.338 38.9146 28.236 39.4992 28.3092C40.0838 28.3823 40.6336 28.6272 41.079 29.0129C41.5244 29.3986 41.8453 29.9077 42.0012 30.4759C42.2087 31.2366 42.1065 32.0484 41.717 32.7339C41.3276 33.4194 40.6825 33.9228 39.9229 34.134Z" fill="#222221"/>
<path d="M66.2891 77.4999V88.2599L75.0685 82.9149L66.2891 77.4999Z" fill="black"/>
<path d="M32.979 133.844C34.9582 133.844 36.5626 132.34 36.5626 130.484C36.5626 128.629 34.9582 127.124 32.979 127.124C30.9999 127.124 29.3955 128.629 29.3955 130.484C29.3955 132.34 30.9999 133.844 32.979 133.844Z" fill="#D47172" stroke="black" stroke-width="0.5" stroke-miterlimit="10"/>
<path d="M32.979 127.353C34.9582 127.353 36.5626 125.848 36.5626 123.993C36.5626 122.137 34.9582 120.633 32.979 120.633C30.9999 120.633 29.3955 122.137 29.3955 123.993C29.3955 125.848 30.9999 127.353 32.979 127.353Z" fill="#D47172" stroke="black" stroke-width="0.5" stroke-miterlimit="10"/>
<path d="M32.979 120.861C34.9582 120.861 36.5626 119.357 36.5626 117.501C36.5626 115.646 34.9582 114.142 32.979 114.142C30.9999 114.142 29.3955 115.646 29.3955 117.501C29.3955 119.357 30.9999 120.861 32.979 120.861Z" fill="#D47172" stroke="black" stroke-width="0.5" stroke-miterlimit="10"/>
<path d="M32.979 114.365C34.9582 114.365 36.5626 112.861 36.5626 111.005C36.5626 109.15 34.9582 107.646 32.979 107.646C30.9999 107.646 29.3955 109.15 29.3955 111.005C29.3955 112.861 30.9999 114.365 32.979 114.365Z" fill="#D47172" stroke="black" stroke-width="0.5" stroke-miterlimit="10"/>
<path d="M32.979 107.874C34.9582 107.874 36.5626 106.37 36.5626 104.514C36.5626 102.658 34.9582 101.154 32.979 101.154C30.9999 101.154 29.3955 102.658 29.3955 104.514C29.3955 106.37 30.9999 107.874 32.979 107.874Z" fill="#D47172" stroke="black" stroke-width="0.5" stroke-miterlimit="10"/>
<path d="M32.979 101.382C34.9582 101.382 36.5626 99.8782 36.5626 98.0226C36.5626 96.167 34.9582 94.6627 32.979 94.6627C30.9999 94.6627 29.3955 96.167 29.3955 98.0226C29.3955 99.8782 30.9999 101.382 32.979 101.382Z" fill="#D47172" stroke="black" stroke-width="0.5" stroke-miterlimit="10"/>
<path d="M72.3091 133.844C74.2882 133.844 75.8926 132.34 75.8926 130.484C75.8926 128.629 74.2882 127.124 72.3091 127.124C70.33 127.124 68.7256 128.629 68.7256 130.484C68.7256 132.34 70.33 133.844 72.3091 133.844Z" fill="#D47172" stroke="black" stroke-width="0.5" stroke-miterlimit="10"/>
<path d="M72.3091 127.353C74.2882 127.353 75.8926 125.848 75.8926 123.993C75.8926 122.137 74.2882 120.633 72.3091 120.633C70.33 120.633 68.7256 122.137 68.7256 123.993C68.7256 125.848 70.33 127.353 72.3091 127.353Z" fill="#D47172" stroke="black" stroke-width="0.5" stroke-miterlimit="10"/>
<path d="M72.3091 120.861C74.2882 120.861 75.8926 119.357 75.8926 117.501C75.8926 115.646 74.2882 114.142 72.3091 114.142C70.33 114.142 68.7256 115.646 68.7256 117.501C68.7256 119.357 70.33 120.861 72.3091 120.861Z" fill="#D47172" stroke="black" stroke-width="0.5" stroke-miterlimit="10"/>
<path d="M72.3091 114.365C74.2882 114.365 75.8926 112.861 75.8926 111.005C75.8926 109.15 74.2882 107.646 72.3091 107.646C70.33 107.646 68.7256 109.15 68.7256 111.005C68.7256 112.861 70.33 114.365 72.3091 114.365Z" fill="#D47172" stroke="black" stroke-width="0.5" stroke-miterlimit="10"/>
<path d="M72.3091 107.874C74.2882 107.874 75.8926 106.37 75.8926 104.514C75.8926 102.658 74.2882 101.154 72.3091 101.154C70.33 101.154 68.7256 102.658 68.7256 104.514C68.7256 106.37 70.33 107.874 72.3091 107.874Z" fill="#D47172" stroke="black" stroke-width="0.5" stroke-miterlimit="10"/>
<path d="M72.3091 101.382C74.2882 101.382 75.8926 99.8782 75.8926 98.0226C75.8926 96.167 74.2882 94.6627 72.3091 94.6627C70.33 94.6627 68.7256 96.167 68.7256 98.0226C68.7256 99.8782 70.33 101.382 72.3091 101.382Z" fill="#D47172" stroke="black" stroke-width="0.5" stroke-miterlimit="10"/>
<path d="M36.4136 98.1717C38.2692 98.1717 39.7734 96.5673 39.7734 94.5882C39.7734 92.609 38.2692 91.0046 36.4136 91.0046C34.558 91.0046 33.0537 92.609 33.0537 94.5882C33.0537 96.5673 34.558 98.1717 36.4136 98.1717Z" fill="#D47172" stroke="black" stroke-width="0.5" stroke-miterlimit="10"/>
<path d="M42.9048 98.1717C44.7604 98.1717 46.2646 96.5673 46.2646 94.5882C46.2646 92.609 44.7604 91.0046 42.9048 91.0046C41.0492 91.0046 39.5449 92.609 39.5449 94.5882C39.5449 96.5673 41.0492 98.1717 42.9048 98.1717Z" fill="#D47172" stroke="black" stroke-width="0.5" stroke-miterlimit="10"/>
<path d="M49.396 98.1717C51.2516 98.1717 52.7559 96.5673 52.7559 94.5882C52.7559 92.609 51.2516 91.0046 49.396 91.0046C47.5404 91.0046 46.0361 92.609 46.0361 94.5882C46.0361 96.5673 47.5404 98.1717 49.396 98.1717Z" fill="#D47172" stroke="black" stroke-width="0.5" stroke-miterlimit="10"/>
<path d="M55.8921 98.1717C57.7477 98.1717 59.2519 96.5673 59.2519 94.5882C59.2519 92.609 57.7477 91.0046 55.8921 91.0046C54.0365 91.0046 52.5322 92.609 52.5322 94.5882C52.5322 96.5673 54.0365 98.1717 55.8921 98.1717Z" fill="#D47172" stroke="black" stroke-width="0.5" stroke-miterlimit="10"/>
<path d="M62.3833 98.1717C64.2389 98.1717 65.7432 96.5673 65.7432 94.5882C65.7432 92.609 64.2389 91.0046 62.3833 91.0046C60.5277 91.0046 59.0234 92.609 59.0234 94.5882C59.0234 96.5673 60.5277 98.1717 62.3833 98.1717Z" fill="#D47172" stroke="black" stroke-width="0.5" stroke-miterlimit="10"/>
<path d="M68.8745 98.1717C70.7301 98.1717 72.2344 96.5673 72.2344 94.5882C72.2344 92.609 70.7301 91.0046 68.8745 91.0046C67.0189 91.0046 65.5146 92.609 65.5146 94.5882C65.5146 96.5673 67.0189 98.1717 68.8745 98.1717Z" fill="#D47172" stroke="black" stroke-width="0.5" stroke-miterlimit="10"/>
<path d="M36.4136 137.502C38.2692 137.502 39.7734 135.898 39.7734 133.919C39.7734 131.939 38.2692 130.335 36.4136 130.335C34.558 130.335 33.0537 131.939 33.0537 133.919C33.0537 135.898 34.558 137.502 36.4136 137.502Z" fill="#D47172" stroke="black" stroke-width="0.5" stroke-miterlimit="10"/>
<path d="M42.9048 137.502C44.7604 137.502 46.2646 135.898 46.2646 133.919C46.2646 131.939 44.7604 130.335 42.9048 130.335C41.0492 130.335 39.5449 131.939 39.5449 133.919C39.5449 135.898 41.0492 137.502 42.9048 137.502Z" fill="#D47172" stroke="black" stroke-width="0.5" stroke-miterlimit="10"/>
<path d="M49.396 137.502C51.2516 137.502 52.7559 135.898 52.7559 133.919C52.7559 131.939 51.2516 130.335 49.396 130.335C47.5404 130.335 46.0361 131.939 46.0361 133.919C46.0361 135.898 47.5404 137.502 49.396 137.502Z" fill="#D47172" stroke="black" stroke-width="0.5" stroke-miterlimit="10"/>
<path d="M55.8921 137.502C57.7477 137.502 59.2519 135.898 59.2519 133.919C59.2519 131.939 57.7477 130.335 55.8921 130.335C54.0365 130.335 52.5322 131.939 52.5322 133.919C52.5322 135.898 54.0365 137.502 55.8921 137.502Z" fill="#D47172" stroke="black" stroke-width="0.5" stroke-miterlimit="10"/>
<path d="M62.3833 137.502C64.2389 137.502 65.7432 135.898 65.7432 133.919C65.7432 131.939 64.2389 130.335 62.3833 130.335C60.5277 130.335 59.0234 131.939 59.0234 133.919C59.0234 135.898 60.5277 137.502 62.3833 137.502Z" fill="#D47172" stroke="black" stroke-width="0.5" stroke-miterlimit="10"/>
<path d="M68.8745 137.502C70.7301 137.502 72.2344 135.898 72.2344 133.919C72.2344 131.939 70.7301 130.335 68.8745 130.335C67.0189 130.335 65.5146 131.939 65.5146 133.919C65.5146 135.898 67.0189 137.502 68.8745 137.502Z" fill="#D47172" stroke="black" stroke-width="0.5" stroke-miterlimit="10"/>
<path d="M72.3099 94.5882H32.9795V133.919H72.3099V94.5882Z" fill="white" stroke="#222221" stroke-width="0.5" stroke-miterlimit="10"/>
<path d="M45.6824 108.755C45.9263 109.743 45.9848 110.769 45.8548 111.779C45.5828 112.915 45.0171 113.959 44.2145 114.808C43.4147 115.649 42.6955 116.563 42.0663 117.539C41.6748 118.233 41.3999 119.314 42.0663 119.943C42.5789 120.409 43.646 120.409 44.2844 120.363C46.6205 120.262 48.9295 119.822 51.1393 119.058C53.2875 118.238 55.282 116.765 56.2373 114.677C57.3184 112.319 56.9456 109.584 56.5542 107.016C56.2886 105.301 56.009 103.531 55.1049 102.044C54.4106 100.898 53.3668 99.9471 52.9474 98.675C51.7311 94.9796 47.0105 98.675 45.9574 100.749C45.1693 102.444 44.894 104.333 45.1652 106.182C45.291 107.012 45.51 107.883 45.6824 108.755Z" fill="black"/>
<path d="M38.1759 133.667H65.5441C65.9601 133.363 66.2594 132.925 66.3922 132.427C66.9141 130.754 66.3456 128.928 65.9262 127.301C65.3183 124.784 64.5015 122.321 63.4844 119.939C63.0282 118.752 62.3778 117.65 61.5598 116.677C59.6958 114.654 56.7786 114.556 54.2016 114.519C50.6833 114.468 46.9227 114.44 43.9124 116.546C42.3124 117.728 40.9363 119.186 39.8488 120.852C37.9149 123.648 36.447 126.91 36.4098 130.321C36.3911 132.111 36.8198 133.154 38.1759 133.667Z" fill="#D28C3A" stroke="black" stroke-width="0.5" stroke-miterlimit="10"/>
<path d="M49.9841 112.32C48.1833 113.497 46.4926 114.836 44.9326 116.318C46.0464 116.663 47.0995 117.604 48.0455 118.079C49.2066 118.564 50.4607 118.785 51.7176 118.727C52.5976 118.718 53.4764 118.662 54.3505 118.559C56.1147 117.351 58.0016 116.333 59.9798 115.521C59.7235 115.628 57.5333 112.259 57.2956 111.914C56.4444 110.647 55.6568 109.342 54.933 108C54.1967 106.634 53.6655 105.157 52.9292 103.806C52.3467 102.734 50.8788 103.102 50.1332 103.922C49.5802 104.593 49.254 105.422 49.2012 106.289C49.1271 107.332 49.2199 108.38 49.4761 109.393C49.6858 110.367 49.779 111.36 49.9841 112.32Z" fill="white" stroke="#222221" stroke-width="0.5" stroke-miterlimit="10"/>
<path d="M46.917 104.416C46.8576 105.392 46.9793 106.37 47.2758 107.301C47.577 108.24 48.2277 109.027 49.0932 109.5C50.5611 110.236 52.4344 109.64 53.5528 108.438C54.6712 107.235 55.1372 105.567 55.3096 103.941C55.4265 103.079 55.3982 102.203 55.2257 101.35C55.0628 100.615 54.7266 99.9306 54.245 99.3526C53.7635 98.7746 53.1507 98.3202 52.4577 98.0273C51.1203 97.5007 49.1025 97.7663 48.1053 98.908C47.0428 100.12 46.9589 102.888 46.917 104.416Z" fill="white" stroke="#222221" stroke-width="0.5" stroke-miterlimit="10"/>
<path d="M49.9229 98.3489C49.8282 98.4986 49.7872 98.676 49.8064 98.8521C49.9229 99.3974 51.2603 99.5372 51.6704 99.8168C52.3677 100.293 52.918 100.955 53.2594 101.727C53.7302 102.918 54.0056 104.177 54.0749 105.455L54.8159 112.287C55.1654 115.526 56.8803 118.466 60.3333 119.086C61.2327 119.244 62.3231 119.132 62.8078 118.35C62.922 118.146 62.9948 117.922 63.022 117.69C63.0492 117.458 63.0302 117.223 62.9662 116.998C62.6773 116.003 62.0298 115.149 61.1488 114.603C60.4824 114.198 59.7042 113.923 59.2289 113.303C59.0144 112.991 58.845 112.651 58.7256 112.292C58.0406 110.507 57.9893 108.992 57.9847 107.11C57.9802 105.644 57.8586 104.18 57.6212 102.734C57.323 100.93 56.7265 99.0059 55.184 98.0133C54.2938 97.5311 53.3131 97.2391 52.3041 97.1559C51.0506 96.9509 50.5147 97.1932 49.9229 98.3489Z" fill="black"/>
<path d="M47.5852 99.8633C47.4897 99.9187 47.383 99.9522 47.273 99.9611C47.2183 99.9655 47.1637 99.9531 47.1162 99.9256C47.0688 99.8981 47.0308 99.8569 47.0074 99.8073C46.9963 99.752 46.9977 99.6948 47.0114 99.64C47.0251 99.5852 47.0508 99.5341 47.0866 99.4905C47.754 98.5204 48.7681 97.8432 49.9199 97.5985C49.575 98.1204 49.5098 98.7495 48.9879 99.1316C48.5469 99.4235 48.0769 99.6687 47.5852 99.8633Z" fill="black"/>
<path d="M48.7861 106.83C48.9672 106.986 49.1876 107.09 49.4235 107.129C49.6594 107.169 49.9015 107.143 50.1236 107.054" fill="white"/>
<path d="M48.7861 106.83C48.9672 106.986 49.1876 107.09 49.4235 107.129C49.6594 107.169 49.9015 107.143 50.1236 107.054" stroke="#222221" stroke-width="0.5" stroke-miterlimit="10"/>
<path d="M49.722 103.862C49.5869 104.328 49.4564 104.794 49.3213 105.26L49.722 103.862Z" fill="white"/>
<path d="M49.722 103.862C49.5869 104.328 49.4564 104.794 49.3213 105.26" stroke="#222221" stroke-width="0.5" stroke-miterlimit="10"/>
<path d="M46.3111 131.766C45.9986 131.895 45.6977 132.051 45.4117 132.232C44.8679 132.567 44.4652 133.089 44.2793 133.7C43.995 134.813 44.6335 136.645 45.9988 136.691C46.2447 136.688 46.4792 136.587 46.6512 136.412C46.8283 136.249 46.9681 136.048 47.1172 135.871C47.5968 135.329 48.2615 134.985 48.9812 134.906C49.5711 134.944 50.1629 134.884 50.7334 134.729C52.3178 134.156 53.7344 134.468 55.426 134.487C57.2403 134.512 59.0515 134.462 60.8596 134.338C62.7236 134.217 66.144 134.725 66.3491 132.283C66.4656 130.908 65.9436 129.44 64.5177 128.97C63.8216 128.774 63.0898 128.74 62.3787 128.872C58.3199 129.445 54.713 131.318 50.5563 131.053C49.9193 131.061 49.2844 131.128 48.6597 131.253C47.8563 131.31 47.0653 131.483 46.3111 131.766Z" fill="white" stroke="#222221" stroke-width="0.5" stroke-miterlimit="10"/>
<path d="M44.9186 131.738H45.0398C45.4452 131.686 46.7127 131.318 46.983 131.77C47.3144 132.299 47.7282 132.771 48.2086 133.168C49.2305 133.942 50.3965 134.505 51.6383 134.823C52.0742 134.972 52.5237 135.078 52.9804 135.139C53.3978 135.221 53.8307 135.156 54.2049 134.953C54.579 134.751 54.871 134.425 55.0308 134.03C55.3943 133.098 54.644 132.194 53.9171 131.654C53.3011 131.246 52.6563 130.883 51.9878 130.568C51.6943 130.414 51.3727 129.93 51.9552 130.032C52.3538 130.152 52.73 130.336 53.069 130.577C53.2399 130.694 53.4396 130.763 53.6464 130.775C53.8533 130.787 54.0596 130.743 54.2433 130.647C54.2851 130.623 54.321 130.591 54.3484 130.551C54.3759 130.512 54.3941 130.466 54.4017 130.419C54.4017 130.232 54.2107 130.116 54.0336 130.046L51.7036 129.114C48.7678 127.958 45.5244 127.348 42.4721 126.518C41.4702 126.248 40.3798 125.978 39.4152 126.36C38.3247 126.784 37.6816 127.958 37.5511 129.119C37.487 129.514 37.5124 129.918 37.6257 130.302C37.7731 130.67 38.0067 130.996 38.3068 131.254C38.6069 131.512 38.9647 131.694 39.3499 131.784C40.1135 131.959 40.9 132.011 41.6799 131.938C42.775 131.905 43.8655 131.873 44.9186 131.738Z" fill="white" stroke="#222221" stroke-width="0.5" stroke-miterlimit="10"/>
<path d="M46.0781 136.654C46.0944 136.285 46.1898 135.924 46.3579 135.595C46.5259 135.266 46.7626 134.977 47.0521 134.748C47.43 134.482 47.8423 134.269 48.2776 134.114" stroke="#222221" stroke-width="0.5" stroke-miterlimit="10"/>
<path d="M45.3325 136.477C44.9551 135.195 45.8405 133.844 46.9682 133.285" stroke="#222221" stroke-width="0.5" stroke-miterlimit="10"/>
<path d="M44.62 135.773C44.5116 135.214 44.5815 134.635 44.8197 134.117C45.058 133.6 45.4527 133.17 45.9481 132.889" stroke="#222221" stroke-width="0.5" stroke-miterlimit="10"/>
<path d="M55.1187 133.527C54.0064 132.737 52.8204 132.057 51.5771 131.495" stroke="#222221" stroke-width="0.5" stroke-miterlimit="10"/>
<path d="M54.9181 134.198C53.5207 133.713 52.185 133.065 50.9385 132.269" stroke="#222221" stroke-width="0.5" stroke-miterlimit="10"/>
<path d="M54.4706 134.79C53.2062 134.579 51.997 134.117 50.915 133.429" stroke="#222221" stroke-width="0.5" stroke-miterlimit="10"/>
<path d="M59.798 129.389C59.2543 127.09 58.7107 124.794 58.167 122.502" stroke="#222221" stroke-width="0.5" stroke-miterlimit="10"/>
<path d="M44.1396 127.008L45.9198 123.336" stroke="#222221" stroke-width="0.5" stroke-miterlimit="10"/>
<path d="M181.834 27.4096H170.869L165.384 36.9067L170.869 46.4038H181.834L187.318 36.9067L181.834 27.4096Z" fill="#222221"/>
<path d="M137.475 0.195221H122.064L114.356 13.5415L122.064 26.8877H137.475L145.182 13.5415L137.475 0.195221Z" stroke="#222221" stroke-width="0.5" stroke-miterlimit="10"/>
<path d="M182.341 5.1022H171.376L165.892 14.6039L171.376 24.101H182.341L187.826 14.6039L182.341 5.1022Z" fill="#A8DCA4" stroke="black" stroke-width="0.5" stroke-miterlimit="10"/>
<path d="M162.043 15.3402H151.073L145.593 24.8373L151.073 34.339H162.043L167.527 24.8373L162.043 15.3402Z" fill="#222221"/>
<path d="M116.864 89.9981H106.779" stroke="black" stroke-width="2" stroke-miterlimit="10"/>
<path d="M105.083 89.9981H101.024" stroke="black" stroke-width="2" stroke-miterlimit="10"/>
<path d="M99.9578 89.9981H97.3389" stroke="black" stroke-width="2" stroke-miterlimit="10"/>
<path d="M96.5419 89.9981H95.498" stroke="black" stroke-width="2" stroke-miterlimit="10"/>
<path d="M94.0441 89.9981H83.2236" stroke="black" stroke-width="2" stroke-miterlimit="10"/>
<path d="M119.106 93.4977H110.266" stroke="black" stroke-width="2" stroke-miterlimit="10"/>
<path d="M108.164 93.4977H96.6768" stroke="black" stroke-width="2" stroke-miterlimit="10"/>
<path d="M94.7896 93.4977H93.4941" stroke="black" stroke-width="2" stroke-miterlimit="10"/>
<path d="M91.1131 93.4977H85.3301" stroke="black" stroke-width="2" stroke-miterlimit="10"/>
<path d="M83.5264 93.4977H80.1572" stroke="black" stroke-width="2" stroke-miterlimit="10"/>
<path d="M116.864 103.321H106.779" stroke="black" stroke-width="2" stroke-miterlimit="10"/>
<path d="M105.083 103.321H101.024" stroke="black" stroke-width="2" stroke-miterlimit="10"/>
<path d="M99.9578 103.321H97.3389" stroke="black" stroke-width="2" stroke-miterlimit="10"/>
<path d="M96.5419 103.321H95.498" stroke="black" stroke-width="2" stroke-miterlimit="10"/>
<path d="M94.0441 103.321H83.2236" stroke="black" stroke-width="2" stroke-miterlimit="10"/>
<path d="M116.864 106.821H110.266" stroke="black" stroke-width="2" stroke-miterlimit="10"/>
<path d="M108.163 106.821H98.6943" stroke="black" stroke-width="2" stroke-miterlimit="10"/>
<path d="M96.1363 106.821H95.0645" stroke="black" stroke-width="2" stroke-miterlimit="10"/>
<path d="M93.3593 106.821H85.3301" stroke="black" stroke-width="2" stroke-miterlimit="10"/>
<path d="M84.2023 106.821L81.9189 106.714" stroke="black" stroke-width="2" stroke-miterlimit="10"/>
<path d="M116.864 110.693H113.509" stroke="black" stroke-width="2" stroke-miterlimit="10"/>
<path d="M111.817 110.693H101.024" stroke="black" stroke-width="2" stroke-miterlimit="10"/>
<path d="M99.0585 110.693H95.9922" stroke="black" stroke-width="2" stroke-miterlimit="10"/>
<path d="M94.2678 110.693H83.2236" stroke="black" stroke-width="2" stroke-miterlimit="10"/>
<path d="M116.864 114.193H110.266" stroke="black" stroke-width="2" stroke-miterlimit="10"/>
<path d="M108.163 114.193H98.6943" stroke="black" stroke-width="2" stroke-miterlimit="10"/>
<path d="M96.1363 114.193H95.0645" stroke="black" stroke-width="2" stroke-miterlimit="10"/>
<path d="M93.3593 114.193H85.3301" stroke="black" stroke-width="2" stroke-miterlimit="10"/>
<path d="M84.2023 114.193L81.9189 114.086" stroke="black" stroke-width="2" stroke-miterlimit="10"/>
<path d="M117.857 109.747L119.008 110.912L117.811 112.124" stroke="black" stroke-width="2" stroke-miterlimit="10"/>
<path d="M118.962 89.1034L117.811 90.2684L119.008 91.48" stroke="black" stroke-width="2" stroke-miterlimit="10"/>
<path d="M80.5905 88.8657L81.7416 90.0307L80.5439 91.2377" stroke="black" stroke-width="2" stroke-miterlimit="10"/>
<path d="M193.963 30.8207H187.598" stroke="#A8DCA4" stroke-miterlimit="10"/>
<path d="M186.53 30.8207H183.967" stroke="#A8DCA4" stroke-miterlimit="10"/>
<path d="M183.291 30.8207H181.642" stroke="#A8DCA4" stroke-miterlimit="10"/>
<path d="M181.139 30.8207H180.481" stroke="#A8DCA4" stroke-miterlimit="10"/>
<path d="M179.563 30.8207H172.736" stroke="#A8DCA4" stroke-miterlimit="10"/>
<path d="M195.375 32.7593H189.797" stroke="#A8DCA4" stroke-miterlimit="10"/>
<path d="M188.474 32.7593H181.223" stroke="#A8DCA4" stroke-miterlimit="10"/>
<path d="M180.034 32.7593H179.214" stroke="#A8DCA4" stroke-miterlimit="10"/>
<path d="M177.713 32.7593H174.064" stroke="#A8DCA4" stroke-miterlimit="10"/>
<path d="M172.928 32.7593H170.803" stroke="#A8DCA4" stroke-miterlimit="10"/>
<path d="M193.963 38.1928H187.598" stroke="#A8DCA4" stroke-miterlimit="10"/>
<path d="M186.53 38.1928H183.967" stroke="#A8DCA4" stroke-miterlimit="10"/>
<path d="M183.291 38.1928H181.642" stroke="#A8DCA4" stroke-miterlimit="10"/>
<path d="M181.139 38.1928H180.481" stroke="#A8DCA4" stroke-miterlimit="10"/>
<path d="M179.563 38.1928H172.736" stroke="#A8DCA4" stroke-miterlimit="10"/>
<path d="M193.963 40.1267H189.797" stroke="#A8DCA4" stroke-miterlimit="10"/>
<path d="M188.473 40.1267H182.499" stroke="#A8DCA4" stroke-miterlimit="10"/>
<path d="M180.882 40.1267H180.206" stroke="#A8DCA4" stroke-miterlimit="10"/>
<path d="M179.13 40.1267H174.064" stroke="#A8DCA4" stroke-miterlimit="10"/>
<path d="M173.351 40.1268L171.916 40.0708" stroke="#A8DCA4" stroke-miterlimit="10"/>
<path d="M193.963 42.2704H191.848" stroke="#A8DCA4" stroke-miterlimit="10"/>
<path d="M190.775 42.2704H183.967" stroke="#A8DCA4" stroke-miterlimit="10"/>
<path d="M182.728 42.2704H180.794" stroke="#A8DCA4" stroke-miterlimit="10"/>
<path d="M179.703 42.2704H172.736" stroke="#A8DCA4" stroke-miterlimit="10"/>
<path d="M193.963 44.2089H189.797" stroke="#A8DCA4" stroke-miterlimit="10"/>
<path d="M188.473 44.2089H182.499" stroke="#A8DCA4" stroke-miterlimit="10"/>
<path d="M180.882 44.2089H180.206" stroke="#A8DCA4" stroke-miterlimit="10"/>
<path d="M179.13 44.2089H174.064" stroke="#A8DCA4" stroke-miterlimit="10"/>
<path d="M173.351 44.2089L171.916 44.1483" stroke="#A8DCA4" stroke-miterlimit="10"/>
<path d="M194.588 41.7484L195.314 42.3915L194.56 43.0625" stroke="#A8DCA4" stroke-miterlimit="10"/>
<path d="M195.287 30.3268L194.56 30.9699L195.314 31.6409" stroke="#A8DCA4" stroke-miterlimit="10"/>
<path d="M171.073 30.1963L171.8 30.8394L171.045 31.5104" stroke="#A8DCA4" stroke-miterlimit="10"/>
<path d="M160.584 18.3739H154.219" stroke="#A8DCA4" stroke-miterlimit="10"/>
<path d="M153.151 18.3739H150.588" stroke="#A8DCA4" stroke-miterlimit="10"/>
<path d="M149.917 18.3739H148.263" stroke="#A8DCA4" stroke-miterlimit="10"/>
<path d="M147.764 18.3739H147.103" stroke="#A8DCA4" stroke-miterlimit="10"/>
<path d="M146.184 18.3739H139.357" stroke="#A8DCA4" stroke-miterlimit="10"/>
<path d="M162.001 20.3078H156.418" stroke="#A8DCA4" stroke-miterlimit="10"/>
<path d="M155.095 20.3078H147.844" stroke="#A8DCA4" stroke-miterlimit="10"/>
<path d="M146.655 20.3078H145.84" stroke="#A8DCA4" stroke-miterlimit="10"/>
<path d="M144.334 20.3078H140.686" stroke="#A8DCA4" stroke-miterlimit="10"/>
<path d="M139.549 20.3078H137.424" stroke="#A8DCA4" stroke-miterlimit="10"/>
<path d="M160.584 25.7413H154.219" stroke="#A8DCA4" stroke-miterlimit="10"/>
<path d="M153.151 25.7413H150.588" stroke="#A8DCA4" stroke-miterlimit="10"/>
<path d="M149.917 25.7413H148.263" stroke="#A8DCA4" stroke-miterlimit="10"/>
<path d="M147.764 25.7413H147.103" stroke="#A8DCA4" stroke-miterlimit="10"/>
<path d="M146.184 25.7413H139.357" stroke="#A8DCA4" stroke-miterlimit="10"/>
<path d="M160.584 27.6799H156.418" stroke="#A8DCA4" stroke-miterlimit="10"/>
<path d="M155.094 27.6799H149.12" stroke="#A8DCA4" stroke-miterlimit="10"/>
<path d="M147.508 27.6799H146.827" stroke="#A8DCA4" stroke-miterlimit="10"/>
<path d="M145.751 27.6799H140.686" stroke="#A8DCA4" stroke-miterlimit="10"/>
<path d="M139.973 27.6799L138.538 27.6193" stroke="#A8DCA4" stroke-miterlimit="10"/>
<path d="M160.583 29.8235H158.468" stroke="#A8DCA4" stroke-miterlimit="10"/>
<path d="M157.401 29.8235H150.588" stroke="#A8DCA4" stroke-miterlimit="10"/>
<path d="M149.349 29.8235H147.415" stroke="#A8DCA4" stroke-miterlimit="10"/>
<path d="M146.329 29.8235H139.357" stroke="#A8DCA4" stroke-miterlimit="10"/>
<path d="M160.584 31.7574H156.418" stroke="#A8DCA4" stroke-miterlimit="10"/>
<path d="M155.094 31.7574H149.12" stroke="#A8DCA4" stroke-miterlimit="10"/>
<path d="M147.508 31.7574H146.827" stroke="#A8DCA4" stroke-miterlimit="10"/>
<path d="M145.751 31.7574H140.686" stroke="#A8DCA4" stroke-miterlimit="10"/>
<path d="M139.973 31.7574L138.538 31.6968" stroke="#A8DCA4" stroke-miterlimit="10"/>
<path d="M161.209 29.2969L161.936 29.9446L161.181 30.611" stroke="#A8DCA4" stroke-miterlimit="10"/>
<path d="M161.908 17.8753L161.181 18.523L161.936 19.1894" stroke="#A8DCA4" stroke-miterlimit="10"/>
<path d="M137.694 17.7448L138.421 18.3879L137.666 19.0589" stroke="#A8DCA4" stroke-miterlimit="10"/>
<path d="M231.736 194.732H153.351" stroke="#222221" stroke-width="0.5" stroke-miterlimit="10"/>
<path d="M236.262 191.758H138.472" stroke="#222221" stroke-width="0.5" stroke-miterlimit="10"/>
<path d="M132.581 191.758H125.927" stroke="#222221" stroke-width="0.5" stroke-miterlimit="10"/>
<path d="M237.687 194.601H234.579" stroke="#222221" stroke-width="0.5" stroke-miterlimit="10"/>
<path d="M215.901 155.391C217.401 157.086 219.126 158.567 221.027 159.794C222.132 160.489 223.315 161.048 224.466 161.658L224.546 161.756C224.914 162.222 225.282 162.805 225.161 163.397C225.025 164.105 224.266 164.501 223.562 164.655C221.698 165.056 218.93 164.832 217.085 164.375C213.24 163.42 209.47 161.747 206.796 158.732C204.121 155.717 202.872 151.649 202.471 147.655C202.056 143.461 201.791 139.659 203.431 135.628C203.864 134.424 204.565 133.334 205.481 132.44C205.905 131.993 206.436 131.663 207.024 131.479C207.612 131.296 208.237 131.266 208.84 131.393C209.443 131.519 210.003 131.798 210.467 132.203C210.932 132.607 211.285 133.124 211.493 133.703C211.927 134.779 212.143 135.931 212.127 137.091C212.201 140.153 211.414 143.093 211.661 146.169C211.959 149.673 213.594 152.805 215.901 155.391Z" fill="white" stroke="black" stroke-width="0.5" stroke-miterlimit="10"/>
<path d="M213.651 125.115C213.613 124.916 213.581 124.716 213.553 124.514C213.259 122.519 212.989 120.021 215.16 119.388C216.137 119.102 217.134 118.894 218.143 118.763C218.461 118.724 218.756 118.576 218.978 118.346C219.2 118.115 219.336 117.815 219.364 117.496C219.457 116.405 219.573 115.32 219.723 114.234C216.12 114.15 214.9 110.646 214.438 107.603C213.902 104.047 214.014 99.606 217.15 97.2201C218.164 96.4741 219.348 95.9926 220.594 95.8193C221.841 95.646 223.111 95.7863 224.289 96.2275C225.461 96.6892 226.509 97.4165 227.352 98.3521C228.194 99.2877 228.808 100.406 229.145 101.619C229.634 103.409 229.611 105.613 229.518 107.458C229.397 109.55 229.015 111.619 228.893 113.712C228.819 115.11 228.935 116.755 229.7 117.985C230.024 118.55 230.498 119.014 231.07 119.327C231.498 119.546 232.617 119.425 232.887 119.719C234.411 121.396 235.837 123.172 237.491 124.709C233.576 126.349 229.486 127.534 225.301 128.242C222.369 128.745 216.447 130.479 214.433 127.366C214.027 126.674 213.761 125.909 213.651 125.115Z" fill="white" stroke="black" stroke-width="0.5" stroke-miterlimit="10"/>
<path d="M248.247 134.975C247.828 129.812 245.516 124.528 240.814 121.927C237.939 120.348 234.822 119.886 231.681 119.131C231.59 119.103 231.492 119.103 231.401 119.131C231.285 119.191 231.195 119.293 231.15 119.416C230.377 120.86 229.221 122.064 227.808 122.894C226.396 123.725 224.782 124.15 223.144 124.122C219.756 124.015 217.165 121.946 215.38 119.234C213.043 119.938 210.812 120.955 208.749 122.258C202.155 126.699 201.736 136.061 200.883 143.228C201.773 143.256 211.433 144.864 211.377 144.58C211.666 146.01 211.41 145.787 211.47 147.217C211.573 149.855 211.769 152.488 212.006 155.139C212.269 158.119 212.736 161.077 213.404 163.993C220.189 166.253 227.925 165.703 235.199 165.046C237.273 164.86 239.426 164.65 241.215 163.592C246.271 160.601 246.472 151.803 247.203 146.686C247.748 142.725 248.573 139.034 248.247 134.975Z" fill="#D47172" stroke="black" stroke-width="0.5" stroke-miterlimit="10"/>
<path d="M196.054 186.282C197 185.287 198.075 184.423 199.251 183.714C203.063 181.203 207.923 178.211 212.723 178.486C215.57 178.654 219.522 180.583 220.109 183.612C220.196 183.95 220.181 184.307 220.067 184.637C219.732 185.425 218.669 185.499 217.798 185.504C210.868 185.564 204.587 189.474 197.793 190.835C197.052 190.984 196.227 191.086 195.598 190.672C194.642 190.038 194.703 188.579 195.211 187.554C195.439 187.097 195.722 186.67 196.054 186.282Z" fill="black"/>
<path d="M179.875 155.941C181.409 154.306 183.432 153.212 185.64 152.823C188.682 152.25 191.823 152.823 194.806 153.625C201.129 155.368 207.057 158.285 213.413 159.934C216.232 160.657 218.073 160.4 220.823 160.167C224.318 159.888 227.901 160.228 231.415 160.023C234.7 159.827 238.251 159.557 241.322 160.489L242.533 159.687C245.968 157.437 249.388 155.195 253.694 156.015C257.082 156.658 260.344 158.373 262.441 161.165C264.673 164.124 264.002 167.991 262.008 170.951C260.353 173.392 257.911 175.191 255.381 176.71C246.653 181.948 237.119 185.154 226.82 184.441C225.422 184.343 223.819 184.329 222.826 185.434C222.449 185.853 222.234 188.132 221.428 188.034C220.093 187.898 218.772 187.646 217.481 187.279L201.87 181.641C197.294 179.991 192.69 178.323 188.524 175.816C184.922 173.649 181.66 170.718 179.745 166.92C178.347 164.18 177.233 160.573 178.673 157.726C178.994 157.08 179.398 156.48 179.875 155.941Z" fill="#D28C3A" stroke="black" stroke-width="0.5" stroke-miterlimit="10"/>
<path d="M244.873 164.003C241.947 165.466 238.885 166.398 236.08 168.131C233.274 169.865 230.628 171.859 227.589 173.187C225.613 174.036 223.363 174.404 221.471 175.345" stroke="black" stroke-width="0.5" stroke-miterlimit="10"/>
<path d="M223.367 185.219C223.833 184.157 224.411 183.113 224.9 182.102C225.226 181.426 225.441 180.732 225.795 180.066C225.837 179.966 225.911 179.882 226.005 179.828C226.093 179.801 226.187 179.801 226.275 179.828L230.427 180.322C231.438 180.438 232.897 180.322 233.656 181.114C234.048 181.58 234.371 182.099 234.616 182.656C236.606 186.431 242.902 189.432 242.287 194.306C241.275 202.303 231.317 191.571 228.912 189.53C227.116 188.149 225.006 187.235 222.771 186.869C222.932 186.306 223.131 185.755 223.367 185.219Z" fill="black"/>
<path d="M217.962 165.377C217.741 165.252 217.549 165.084 217.396 164.882C217.243 164.68 217.132 164.449 217.072 164.203C216.903 163.653 216.858 163.073 216.938 162.504C217.019 161.934 217.223 161.39 217.538 160.908C218.386 159.58 219.868 158.769 221.396 158.35C222.932 158.008 224.489 157.769 226.056 157.632C228.712 157.273 231.305 156.543 233.759 155.465C234.933 154.948 236.089 154.324 236.867 153.289C237.697 152.147 237.893 150.68 238.065 149.277C238.323 147.192 238.578 145.106 238.829 143.019C239.053 141.21 239.295 139.346 240.171 137.748C241.047 136.15 242.744 134.854 244.561 135.003C246.113 135.125 247.436 136.266 248.2 137.622C249.445 139.831 250.064 143.186 250.433 145.684C250.783 148.505 250.66 151.366 250.069 154.147C249.784 155.916 249.104 157.599 248.08 159.07C247.057 160.541 245.715 161.764 244.156 162.646C236.9 166.696 227.636 166.43 219.621 165.685C219.054 165.68 218.492 165.576 217.962 165.377Z" fill="white" stroke="black" stroke-width="0.5" stroke-miterlimit="10"/>
<path d="M220.613 94.1631C220.179 94.2144 219.741 94.2703 219.308 94.3076C217.644 94.4613 215.859 94.4194 214.475 95.3467C212.933 96.3766 212.169 98.9769 213.124 100.659C214.145 102.463 218.669 101.479 220.342 101.437C221.708 101.405 223.8 101.19 223.851 103.054L223.879 104.047C223.872 104.232 223.9 104.418 223.963 104.592C224.128 104.882 224.376 105.116 224.676 105.263C225.477 105.713 226.104 106.419 226.456 107.267C226.783 108.199 226.922 109.238 227.514 110.063C227.667 110.273 227.83 110.475 228.003 110.669L228.935 111.759C229.113 111.594 229.24 111.383 229.304 111.149C231.102 106.312 232.85 100.496 228.549 96.3906C226.967 94.8906 224.88 94.0377 222.7 94C222.002 94.0084 221.304 94.0628 220.613 94.1631Z" fill="black"/>
<path d="M194.47 158.932C200.327 161.579 205.043 166.183 210.379 169.772C215.361 173.127 220.873 175.592 226.358 178.034C226.074 178.663 225.957 179.283 225.668 179.898" stroke="black" stroke-width="0.5" stroke-miterlimit="10"/>
<path d="M219.499 108.921C219.3 109.485 218.89 109.949 218.355 110.216C217.82 110.482 217.202 110.529 216.633 110.347" stroke="#222221" stroke-width="0.5" stroke-miterlimit="10"/>
<path d="M225.412 108.586C225.841 108.691 226.291 108.676 226.713 108.544C227.135 108.412 227.512 108.168 227.805 107.837C228.098 107.506 228.295 107.101 228.375 106.667C228.455 106.232 228.415 105.784 228.259 105.37C228.064 104.925 227.732 104.553 227.311 104.309C226.891 104.065 226.403 103.962 225.919 104.014C225.436 104.066 224.981 104.271 224.622 104.598C224.263 104.926 224.017 105.36 223.921 105.836" fill="white"/>
<path d="M225.412 108.586C225.841 108.691 226.291 108.676 226.713 108.544C227.135 108.412 227.512 108.168 227.805 107.837C228.098 107.506 228.295 107.101 228.375 106.667C228.455 106.232 228.415 105.784 228.259 105.37C228.064 104.925 227.732 104.553 227.311 104.309C226.891 104.065 226.403 103.962 225.919 104.014C225.436 104.066 224.981 104.271 224.622 104.598C224.263 104.926 224.017 105.36 223.921 105.836" stroke="black" stroke-width="0.5" stroke-miterlimit="10"/>
<path d="M226.518 105.193C226.314 105.138 226.101 105.125 225.892 105.154C225.683 105.184 225.482 105.256 225.301 105.366C225.142 105.463 225.01 105.6 224.918 105.763C224.827 105.927 224.779 106.111 224.779 106.298" stroke="#222221" stroke-width="0.5" stroke-miterlimit="10"/>
<path d="M235.618 131.601C236.55 135.246 236.326 146.355 236.354 148.378C237.85 148.354 239.346 148.298 240.837 148.196C244.356 147.963 247.851 147.515 251.327 146.947C251.141 144.974 250.914 143.006 250.647 141.043C249.771 134.77 248.14 128.698 243.685 124.201" fill="#D47172"/>
<path d="M235.618 131.601C236.55 135.246 236.326 146.355 236.354 148.378C237.85 148.354 239.346 148.298 240.837 148.196C244.356 147.963 247.851 147.515 251.327 146.947C251.141 144.974 250.914 143.006 250.647 141.043C249.771 134.77 248.14 128.698 243.685 124.201" stroke="black" stroke-width="0.5" stroke-miterlimit="10"/>
<path d="M236.304 168.597H203.092C202.858 168.597 202.634 168.504 202.469 168.339C202.304 168.174 202.211 167.95 202.211 167.716C202.21 167.601 202.233 167.486 202.277 167.379C202.321 167.272 202.386 167.174 202.468 167.092C202.549 167.01 202.647 166.946 202.754 166.902C202.861 166.858 202.976 166.835 203.092 166.836H236.304C236.419 166.835 236.534 166.858 236.641 166.902C236.748 166.946 236.846 167.01 236.928 167.092C237.01 167.174 237.074 167.272 237.118 167.379C237.163 167.486 237.185 167.601 237.184 167.716C237.184 167.95 237.091 168.174 236.926 168.339C236.761 168.504 236.537 168.597 236.304 168.597Z" fill="black"/>
<path d="M231.359 167.4H202.308L196.25 152.488C196.204 152.375 196.187 152.254 196.199 152.133C196.211 152.013 196.253 151.897 196.321 151.796C196.389 151.696 196.48 151.614 196.588 151.557C196.695 151.5 196.814 151.471 196.935 151.472H224.429C224.577 151.472 224.722 151.516 224.844 151.599C224.966 151.682 225.06 151.8 225.115 151.938L231.359 167.4Z" fill="black"/>
<path d="M210.761 159.45C210.976 159.885 211.308 160.252 211.719 160.509C212.131 160.767 212.606 160.905 213.091 160.908C214.07 160.908 214.61 160.256 214.298 159.45C214.085 159.013 213.753 158.645 213.342 158.386C212.93 158.128 212.454 157.989 211.968 157.986C210.994 157.986 210.454 158.639 210.761 159.45Z" stroke="white" stroke-width="0.5" stroke-miterlimit="10"/>
<path d="M211.376 144.598C211.148 140.578 211.148 136.549 211.376 132.529V144.598Z" fill="#D47172"/>
<path d="M211.376 144.598C211.148 140.578 211.148 136.549 211.376 132.529" stroke="black" stroke-width="0.5" stroke-miterlimit="10"/>
<path d="M219.708 114.154L219.634 114.336C219.697 114.851 219.683 115.373 219.592 115.883L219.969 115.781C220.534 115.583 221.051 115.269 221.487 114.86C221.924 114.451 222.27 113.955 222.504 113.404C221.646 113.874 220.687 114.132 219.708 114.154Z" fill="black"/>
<path d="M195.815 70H180.605L173 83.1738L180.605 96.3476H195.815L203.42 83.1738L195.815 70Z" stroke="#222221" stroke-width="0.5" stroke-miterlimit="10"/>
<path d="M134.815 106H119.605L112 119.174L119.605 132.348H134.815L142.42 119.174L134.815 106Z" stroke="#222221" stroke-width="0.5" stroke-miterlimit="10"/>
<path d="M228.26 115.268V116.331" stroke="#222221" stroke-width="0.5" stroke-miterlimit="10"/>
<path d="M228.302 116.946C228.304 117.287 228.377 117.624 228.516 117.936C228.655 118.248 228.856 118.528 229.108 118.759" stroke="#222221" stroke-width="0.5" stroke-miterlimit="10"/>
<path d="M248.377 136.173C249.059 138.529 249.419 140.967 249.449 143.419" stroke="#222221" stroke-width="0.5" stroke-miterlimit="10"/>
<path d="M219.364 156.226V156.948" stroke="#222221" stroke-width="0.5" stroke-miterlimit="10"/>
<path d="M203.687 131.946C203.077 133.918 202.679 135.949 202.499 138.004" stroke="#222221" stroke-width="0.5" stroke-miterlimit="10"/>
<path d="M261.961 163.024C262.617 164.275 262.811 165.717 262.511 167.097C262.204 168.466 261.734 169.794 261.113 171.053" stroke="#222221" stroke-width="0.5" stroke-miterlimit="10"/>
<path d="M259.869 172.176C259.074 173.231 258.122 174.157 257.045 174.921" stroke="#222221" stroke-width="0.5" stroke-miterlimit="10"/>
<path d="M260.302 170.21C259.733 171.069 259.044 171.843 258.256 172.507" stroke="#222221" stroke-width="0.5" stroke-miterlimit="10"/>
<path d="M255.731 175.536C255.166 175.961 254.553 176.318 253.904 176.599" stroke="#222221" stroke-width="0.5" stroke-miterlimit="10"/>
<path d="M180.243 165.037C180.56 165.962 180.982 166.847 181.501 167.675" stroke="#222221" stroke-width="0.5" stroke-miterlimit="10"/>
<path d="M182.331 168.933C182.711 169.468 183.145 169.964 183.627 170.41" stroke="#222221" stroke-width="0.5" stroke-miterlimit="10"/>
<path d="M181.893 167.237C182.112 167.61 182.369 167.96 182.661 168.28" stroke="#222221" stroke-width="0.5" stroke-miterlimit="10"/>
<path d="M247.306 158.406C246.661 159.441 245.779 160.308 244.733 160.936" stroke="#222221" stroke-width="0.5" stroke-miterlimit="10"/>
</g>
<defs>
<clipPath id="clip0">
<rect width="265" height="197" fill="white"/>
</clipPath>
</defs>
</svg>
