<svg width="48" height="48" viewBox="0 0 48 48" fill="none" xmlns="http://www.w3.org/2000/svg">
<path d="M32.3554 45.9917V43.32C32.3554 42.6024 31.7684 42.0158 31.0513 42.0158H13.2241C12.5065 42.0158 11.9199 42.6029 11.9199 43.32V45.9917H32.3554Z" fill="#F79420"/>
<path d="M14.4082 15.1776C14.5699 16.1371 15.4877 16.7899 16.4472 16.6282L26.2848 14.9688C27.2443 14.807 27.8971 13.8893 27.7354 12.9298L27.6643 12.5074C27.5026 11.5478 26.5848 10.8951 25.6253 11.0568L15.7877 12.7162C14.8282 12.8779 14.1754 13.7957 14.3371 14.7552L14.4082 15.1776Z" fill="white"/>
<path d="M18.471 22.2869C19.0974 25.9997 18.0385 27.4056 18.0385 27.4056L27.9179 25.7395C27.9179 25.7395 26.7875 24.2938 26.2729 21.2439C25.7584 18.1939 26.2739 15.9931 26.2739 15.9931L16.395 17.6592C16.395 17.6592 17.8446 18.5741 18.471 22.2869Z" fill="white"/>
<path d="M16.9758 30.4022L17.0468 30.8246C17.2086 31.7842 18.1264 32.437 19.0859 32.2752L28.9235 30.6158C29.883 30.4541 30.5358 29.5363 30.374 28.5768L30.303 28.1544C30.1412 27.1949 29.2235 26.5421 28.264 26.7038L18.4264 28.3632C17.4664 28.5254 16.814 29.4427 16.9758 30.4022Z" fill="white"/>
<path d="M17.3398 23.6674L17.0187 21.7637C16.8373 20.688 15.8086 19.956 14.733 20.1374L8.73584 20.8694V27.1315L15.7136 25.9531C16.7893 25.7717 17.5213 24.743 17.3398 23.6674Z" fill="white"/>
<path d="M32.5424 20.3856C35.108 18.949 37.2627 16.6915 37.2627 12.6384V12.5357C37.2627 6.89184 32.7474 3.24864 25.4106 3.24864H8.73584V20.8694L14.733 20.1374C15.8086 19.956 16.8373 20.6875 17.0187 21.7637L17.3398 23.6674C17.5213 24.743 16.7898 25.7717 15.7136 25.9531L8.73584 27.1315V39.1642H25.821C33.9282 39.1642 39.2638 35.8805 39.2638 29.3131V29.2104C39.2638 24.3874 36.6987 21.9763 32.5424 20.3856ZM14.4075 15.1776L14.3365 14.7552C14.1747 13.7957 14.8275 12.8779 15.787 12.7162L25.6246 11.0568C26.5842 10.895 27.5019 11.5478 27.6637 12.5074L27.7347 12.9298C27.8965 13.8893 27.2437 14.807 26.2842 14.9688L16.4466 16.6282C15.487 16.7894 14.5693 16.1371 14.4075 15.1776ZM16.3947 17.6592L26.2741 15.9931C26.2741 15.9931 25.7586 18.1939 26.2731 21.2438C26.7877 24.2938 27.9181 25.7395 27.9181 25.7395L18.0382 27.4061C18.0382 27.4061 19.0966 26.0002 18.4707 22.2874C17.8443 18.5741 16.3947 17.6592 16.3947 17.6592ZM28.9232 30.6163L19.0856 32.2752C18.1261 32.437 17.2083 31.7842 17.0466 30.8246L16.9755 30.4022C16.8138 29.4427 17.4666 28.525 18.4261 28.3632L28.2637 26.7038C29.2232 26.5421 30.141 27.1949 30.3027 28.1544L30.3738 28.5768C30.5355 29.5368 29.8827 30.4546 28.9232 30.6163Z" fill="#F79420"/>
</svg>
