<svg width="167" height="51" viewBox="0 0 167 51" fill="none" xmlns="http://www.w3.org/2000/svg">
<g clip-path="url(#clip0)">
<path d="M27.9806 50.626V47.476C27.9806 46.6307 27.2915 45.939 26.4495 45.939H5.51648C4.67445 45.939 3.98535 46.6307 3.98535 47.476V50.626H27.9806Z" fill="#F79420"/>
<path d="M52.4929 5.46191H60.0044L57.9424 19.4102C60.0044 16.7984 62.0664 15.7625 64.8158 15.9602C69.1367 16.2566 71.5415 19.756 71.2971 25.276C70.9051 34.0007 65.0126 40.1119 57.0107 40.1119C54.0152 40.1119 51.2659 39.5702 47.6323 38.2396L52.4929 5.46191ZM55.7819 33.8507C56.9597 34.0978 57.5978 34.0978 58.4328 33.999C60.4456 33.7025 61.7219 32.6684 62.6553 30.5984C63.195 29.3666 63.5395 27.8878 63.638 26.409C63.7856 23.896 62.803 22.4666 61.0363 22.5654C59.6616 22.6149 58.3854 23.6984 56.9615 25.966L55.7819 33.8507Z" fill="#F79420"/>
<path d="M80.1321 39.3706H72.6206L76.0081 16.5512H83.5196L80.1321 39.3706ZM84.8942 10.1929C84.8942 12.9035 82.9799 14.8253 80.329 14.8253C77.9242 14.8253 76.4511 13.2971 76.4511 10.7841C76.4511 8.31883 78.4639 6.34766 81.0163 6.34766C83.2735 6.34766 84.8942 7.9253 84.8942 10.1929Z" fill="#F79420"/>
<path d="M107.478 39.5684C105.613 39.9143 104.63 39.9619 103.452 39.9143C101.979 39.8649 100.605 39.1749 99.7697 38.1902C99.23 37.5496 99.0331 36.8596 99.0331 35.5784C96.7742 38.9296 94.8599 40.1119 91.766 40.1119C87.1023 40.1119 84.3529 36.0707 84.8434 30.106C85.5799 21.7272 91.8152 15.5172 99.179 15.8613C99.6202 15.8613 100.308 15.9602 101.192 16.059L102.763 5.46191H110.275L106.69 29.4655L106.444 31.5355C106.052 34.1966 106.641 35.0843 108.851 34.936L107.478 39.5684ZM100.309 22.1207C99.9665 22.0219 99.7204 21.9725 99.5728 21.9725C98.0504 21.7255 96.3822 22.1702 95.3503 22.959C93.8772 24.1907 92.7486 26.7055 92.5025 29.2678C92.2564 31.8302 93.1406 33.309 94.9091 33.4078C96.2838 33.5066 97.4123 32.5696 99.1315 30.0566L100.309 22.1207Z" fill="#F79420"/>
<path d="M118.277 39.3706H110.765L114.153 16.5512H121.664L118.277 39.3706ZM123.039 10.1929C123.039 12.9035 121.124 14.8253 118.474 14.8253C116.069 14.8253 114.596 13.2971 114.596 10.7841C114.596 8.31883 116.608 6.34766 119.161 6.34766C121.418 6.34766 123.039 7.9253 123.039 10.1929Z" fill="#F79420"/>
<path d="M139.486 22.071H134.724L132.612 36.1675C131.876 41.0963 130.942 44.054 129.323 46.4681C127.261 49.5246 123.726 50.954 119.112 50.5587C118.866 50.5587 118.523 50.5093 118.131 50.4598L117.835 45.6299H118.769C120.439 45.6299 122.206 44.7916 123.041 43.5598C123.925 42.2293 124.464 40.5528 124.906 37.3993L127.214 22.071H123.287L124.122 16.551H128.049L128.246 15.3193C129.179 8.96102 132.32 5.60985 137.819 5.06808C139.489 4.91985 140.815 5.01867 142.975 5.51102L141.748 10.6851C141.404 10.6851 141.159 10.6357 140.962 10.6357C138.9 10.4875 137.378 11.1281 136.494 12.411C135.954 13.1998 135.708 13.9887 135.267 16.551H140.324L139.486 22.071Z" fill="#F79420"/>
<path d="M158.091 16.4507L152.723 29.1689L149.943 16.4507H142.385L147.518 38.0401C146.633 39.863 146.241 40.6024 145.554 41.6383C144.032 43.9554 142.019 45.1872 139.809 45.1872C139.073 45.1872 138.582 45.1377 137.55 44.9401L138.385 50.4601C138.876 50.5589 139.22 50.6083 139.465 50.6083C144.276 51.1007 147.614 49.426 151.248 44.693C152.869 42.5736 153.948 40.7013 156.747 35.1319L166.218 16.4507H158.091V16.4507Z" fill="#F79420"/>
<path d="M150.394 10.6817L151.106 5.99644H153.078L151.842 14.1017L150.52 14.377L147.175 9.62821L146.475 14.2129H144.503L145.739 6.14468L147.024 5.86938L150.394 10.6817Z" fill="#F79420"/>
<path d="M156.172 9.54164H158.519L158.269 11.2075H155.922L155.472 14.2146H153.387L154.611 5.99634H159.354L159.104 7.73811H156.434L156.172 9.54164Z" fill="#F79420"/>
<path d="M163.337 14.2165H161.252L162.214 7.74005H160.018L160.28 5.99829H166.758L166.496 7.74005H164.313L163.337 14.2165Z" fill="#F79420"/>
<path d="M48.1945 49.3503H45.0936L44.4133 50.725H43.9932L46.4525 45.842H46.8427L49.302 50.725H48.8819L48.1945 49.3503ZM48.0504 49.0503L46.6458 46.232L45.2483 49.0503H48.0504Z" fill="#F79420"/>
<path d="M50.7029 50.2233C50.3284 49.865 50.1421 49.3427 50.1421 48.6544V45.8433H50.5323V48.6403C50.5323 49.2403 50.6818 49.6886 50.9824 49.9868C51.283 50.285 51.7172 50.4333 52.2885 50.4333C52.8528 50.4333 53.2869 50.285 53.5858 49.9868C53.8864 49.6886 54.0358 49.2403 54.0358 48.6403V45.8433H54.4261V48.6544C54.4261 49.3427 54.238 49.865 53.8618 50.2233C53.4856 50.5815 52.9582 50.7597 52.2814 50.7597C51.6029 50.7597 51.0773 50.5797 50.7029 50.2233Z" fill="#F79420"/>
<path d="M57.1175 50.4387C56.6974 50.2252 56.3669 49.9287 56.1243 49.5528C55.8817 49.1769 55.7622 48.7534 55.7622 48.284C55.7622 47.8146 55.8835 47.3911 56.1243 47.0152C56.3669 46.6393 56.6974 46.3428 57.1175 46.1293C57.5377 45.9158 58.0105 45.8081 58.5344 45.8081C58.9211 45.8081 59.278 45.8646 59.6032 45.9793C59.9284 46.094 60.2062 46.2616 60.4347 46.4858L60.1903 46.7152C59.7632 46.3287 59.2147 46.1363 58.5485 46.1363C58.1002 46.1363 57.6924 46.2299 57.3267 46.4152C56.9593 46.6005 56.6728 46.8581 56.4636 47.1863C56.2544 47.5146 56.1507 47.8799 56.1507 48.2858C56.1507 48.6899 56.2544 49.0569 56.4636 49.3852C56.6728 49.7134 56.9593 49.9693 57.3267 50.1563C57.6924 50.3416 58.1002 50.4352 58.5485 50.4352C59.2094 50.4352 59.7579 50.2393 60.1903 49.8493L60.4347 50.0787C60.2062 50.3028 59.9266 50.4722 59.5979 50.5887C59.2692 50.7052 58.9141 50.7634 58.5326 50.7634C58.0105 50.7599 57.5377 50.6522 57.1175 50.4387Z" fill="#F79420"/>
<path d="M62.7252 46.163H60.8003V45.8418H65.0386V46.163H63.1137V50.7247H62.7234V46.163H62.7252Z" fill="#F79420"/>
<path d="M66.0317 45.8418H66.422V50.7247H66.0317V45.8418Z" fill="#F79420"/>
<path d="M69.1626 50.4352C68.7407 50.2181 68.4084 49.9217 68.1658 49.5458C67.9232 49.1681 67.8037 48.7481 67.8037 48.284C67.8037 47.8199 67.925 47.3981 68.1658 47.0222C68.4084 46.6446 68.7389 46.3499 69.1626 46.1328C69.5845 45.9158 70.0591 45.8081 70.5829 45.8081C71.1068 45.8081 71.5814 45.9158 72.0033 46.1293C72.4252 46.3428 72.7575 46.6393 73 47.0152C73.2426 47.3928 73.3622 47.8146 73.3622 48.284C73.3622 48.7534 73.2409 49.1769 73 49.5528C72.7575 49.9305 72.4252 50.2252 72.0033 50.4387C71.5814 50.6523 71.1068 50.7599 70.5829 50.7599C70.0591 50.7599 69.5862 50.6522 69.1626 50.4352ZM71.7976 50.1528C72.1598 49.9675 72.4445 49.7099 72.6537 49.3817C72.8629 49.0534 72.9666 48.6881 72.9666 48.2822C72.9666 47.8781 72.8629 47.5111 72.6537 47.1828C72.4445 46.8546 72.1598 46.5987 71.7976 46.4116C71.4355 46.2263 71.0312 46.1328 70.5829 46.1328C70.1347 46.1328 69.7286 46.2263 69.3647 46.4116C69.0008 46.5969 68.7143 46.8546 68.5051 47.1828C68.2959 47.5111 68.1922 47.8764 68.1922 48.2822C68.1922 48.6864 68.2959 49.0534 68.5051 49.3817C68.7143 49.7099 69.0008 49.9658 69.3647 50.1528C69.7286 50.3381 70.1347 50.4317 70.5829 50.4317C71.0312 50.4317 71.4355 50.3381 71.7976 50.1528Z" fill="#F79420"/>
<path d="M79.0982 45.8418V50.7247H78.7782L75.1359 46.4842V50.7247H74.7456V45.8418H75.0743L78.7097 50.0824V45.8418H79.0982Z" fill="#F79420"/>
<path d="M88.0391 50.7247L88.0321 46.5459L85.7943 50.0753H85.6027L83.3649 46.56V50.7247H82.9834V45.8418H83.3121L85.7029 49.6147L88.0936 45.8418H88.4153L88.4223 50.7247H88.0391Z" fill="#F79420"/>
<path d="M93.6203 49.35H90.5194L89.8391 50.7247H89.4189L91.8782 45.8418H92.2685L94.7278 50.7247H94.3077L93.6203 49.35ZM93.4762 49.05L92.0716 46.2318L90.6741 49.05H93.4762Z" fill="#F79420"/>
<path d="M99.4389 50.7247L98.1645 49.0924C97.9764 49.1153 97.8023 49.1277 97.6459 49.1277H96.1183V50.7247H95.728V45.8418H97.6441C98.3157 45.8418 98.843 45.9865 99.2245 46.2777C99.6059 46.5689 99.7976 46.9712 99.7976 47.4883C99.7976 47.8747 99.6886 48.1994 99.4723 48.4606C99.2561 48.7236 98.9467 48.9089 98.5442 49.0147L99.8802 50.723H99.4389V50.7247ZM97.6459 48.8136C98.2154 48.8136 98.6514 48.6989 98.952 48.4677C99.2526 48.2383 99.402 47.91 99.402 47.4883C99.402 47.0647 99.2526 46.7383 98.952 46.5089C98.6514 46.2794 98.2154 46.163 97.6459 46.163H96.1183V48.8136H97.6459Z" fill="#F79420"/>
<path d="M102.846 48.3175L101.647 49.4398V50.7228H101.257V45.8398H101.647V48.9793L104.984 45.8398H105.456L103.104 48.0581L105.616 50.7228H105.144L102.846 48.3175Z" fill="#F79420"/>
<path d="M110.343 50.4036V50.7247H106.655V45.8418H110.229V46.163H107.046V48.0883H109.893V48.4024H107.046V50.4036H110.343V50.4036Z" fill="#F79420"/>
<path d="M112.818 46.163H110.893V45.8418H115.131V46.163H113.206V50.7247H112.816V46.163H112.818Z" fill="#F79420"/>
<path d="M6.90525 14.3012C7.0951 15.4324 8.17269 16.2018 9.29951 16.0112L20.8506 14.0559C21.9774 13.8654 22.7439 12.7836 22.554 11.6524L22.4697 11.1548C22.2798 10.0236 21.2022 9.25418 20.0754 9.44476L8.52427 11.4001C7.39746 11.5906 6.63102 12.6724 6.82087 13.8036L6.90525 14.3012Z" fill="white"/>
<path d="M11.676 22.6835C12.4108 27.0599 11.168 28.717 11.168 28.717L22.7683 26.7529C22.7683 26.7529 21.4411 25.0482 20.8364 21.4535C20.2317 17.8588 20.8381 15.2646 20.8381 15.2646L9.23779 17.2288C9.23779 17.227 10.9412 18.3052 11.676 22.6835Z" fill="white"/>
<path d="M9.91999 32.2501L10.0044 32.7478C10.1942 33.879 11.2718 34.6484 12.3986 34.4578L23.9498 32.5025C25.0766 32.3119 25.843 31.2301 25.6532 30.0989L25.5688 29.6013C25.3789 28.4701 24.3013 27.7007 23.1745 27.8913L11.6234 29.8466C10.4966 30.0372 9.73014 31.1189 9.91999 32.2501Z" fill="white"/>
<path d="M10.3472 24.3106L9.97106 22.0659C9.75835 20.7971 8.55068 19.9359 7.28675 20.1494L0.244629 21.0124V28.3942L8.43818 27.0053C9.7021 26.79 10.5617 25.5777 10.3472 24.3106Z" fill="white"/>
<path d="M28.2004 20.4406C31.2135 18.7465 33.7431 16.0853 33.7431 11.3082V11.1865C33.7431 4.53352 28.4413 0.23999 19.8258 0.23999H0.244629V21.0124L7.28676 20.1494C8.55068 19.9359 9.75836 20.7988 9.97106 22.0659L10.3473 24.3106C10.56 25.5794 9.70035 26.7918 8.43818 27.0053L0.244629 28.3941V42.5788H20.3075C29.8265 42.5788 36.0934 38.7071 36.0934 30.9671V30.8453C36.0916 25.1594 33.0803 22.3165 28.2004 20.4406ZM6.90529 14.3012L6.82091 13.8035C6.63106 12.6723 7.3975 11.5906 8.52431 11.4L20.0754 9.4447C21.2023 9.25411 22.2798 10.0235 22.4697 11.1547L22.5541 11.6523C22.7439 12.7835 21.9775 13.8653 20.8507 14.0559L9.29955 16.0112C8.17274 16.2018 7.09515 15.4323 6.90529 14.3012ZM9.23802 17.2271L20.8384 15.2629C20.8384 15.2629 20.2337 17.8571 20.8366 21.4518C21.4396 25.0465 22.7685 26.7512 22.7685 26.7512L11.1682 28.7153C11.1682 28.7153 12.411 27.0582 11.6762 22.6818C10.9414 18.3053 9.23802 17.2271 9.23802 17.2271ZM23.9498 32.5006L12.3987 34.4559C11.2719 34.6465 10.1943 33.8771 10.0045 32.7459L9.92008 32.2482C9.73023 31.1171 10.4967 30.0353 11.6235 29.8447L23.1746 27.8894C24.3014 27.6988 25.379 28.4682 25.5689 29.5994L25.6532 30.0971C25.8431 31.2282 25.0767 32.31 23.9498 32.5006Z" fill="#F79420"/>
</g>
<defs>
<clipPath id="clip0">
<rect width="167" height="50" fill="white" transform="translate(0 0.5)"/>
</clipPath>
</defs>
</svg>
